Pacifico-Bold.ufo
<glyph name="exclam" format="1">
  <advance width="363"/>
  <unicode hex="0021"/>
  <outline>
    <contour>
      <point x="208" y="0" type="curve" smooth="yes"/>
      <point x="255" y="0"/>
      <point x="283" y="32"/>
      <point x="283" y="78" type="curve" smooth="yes"/>
      <point x="283" y="121"/>
      <point x="258" y="143"/>
      <point x="214" y="143" type="curve" smooth="yes"/>
      <point x="167" y="143"/>
      <point x="140" y="113"/>
      <point x="140" y="67" type="curve" smooth="yes"/>
      <point x="140" y="24"/>
      <point x="164" y="0"/>
    </contour>
    <contour>
      <point x="429" y="608" type="curve" smooth="yes"/>
      <point x="429" y="634"/>
      <point x="412" y="654"/>
      <point x="375" y="654" type="curve" smooth="yes"/>
      <point x="345" y="654"/>
      <point x="324" y="632"/>
      <point x="317" y="602" type="curve" smooth="yes"/>
      <point x="233" y="262" type="line" smooth="yes"/>
      <point x="232" y="259"/>
      <point x="232" y="256"/>
      <point x="232" y="254" type="curve" smooth="yes"/>
      <point x="232" y="241"/>
      <point x="241" y="233"/>
      <point x="251" y="233" type="curve" smooth="yes"/>
      <point x="259" y="233"/>
      <point x="268" y="238"/>
      <point x="274" y="250" type="curve" smooth="yes"/>
      <point x="408" y="536" type="line" smooth="yes"/>
      <point x="421" y="564"/>
      <point x="429" y="589"/>
    </contour>
  </outline>
</glyph>
<glyph name="ampersand" format="1">
  <advance width="521"/>
  <unicode hex="0026"/>
  <outline>
    <contour>
      <point x="248" y="337" type="curve"/>
      <point x="234" y="365"/>
      <point x="220" y="398"/>
      <point x="220" y="423" type="curve" smooth="yes"/>
      <point x="220" y="457"/>
      <point x="235" y="481"/>
      <point x="271" y="481" type="curve" smooth="yes"/>
      <point x="298" y="481"/>
      <point x="314" y="473"/>
      <point x="314" y="449" type="curve" smooth="yes"/>
      <point x="314" y="399"/>
      <point x="280" y="372"/>
    </contour>
    <contour>
      <point x="115" y="125" type="curve" smooth="yes"/>
      <point x="115" y="176"/>
      <point x="148" y="218"/>
      <point x="181" y="243" type="curve"/>
      <point x="211" y="189"/>
      <point x="244" y="136"/>
      <point x="283" y="87" type="curve"/>
      <point x="258" y="69"/>
      <point x="224" y="59"/>
      <point x="194" y="59" type="curve" smooth="yes"/>
      <point x="152" y="59"/>
      <point x="115" y="79"/>
    </contour>
    <contour>
      <point x="468" y="-82" type="curve" smooth="yes"/>
      <point x="519" y="-82"/>
      <point x="552" y="-57"/>
      <point x="552" y="-40" type="curve" smooth="yes"/>
      <point x="552" y="-13"/>
      <point x="493" y="0"/>
      <point x="469" y="17" type="curve" smooth="yes"/>
      <point x="456" y="28"/>
      <point x="434" y="48"/>
      <point x="405" y="75" type="curve"/>
      <point x="461" y="106"/>
      <point x="511" y="140"/>
      <point x="511" y="197" type="curve" smooth="yes"/>
      <point x="511" y="224"/>
      <point x="484" y="239"/>
      <point x="464" y="239" type="curve" smooth="yes"/>
      <point x="454" y="239"/>
      <point x="445" y="235"/>
      <point x="444" y="226" type="curve" smooth="yes"/>
      <point x="439" y="182"/>
      <point x="389" y="149"/>
      <point x="364" y="132" type="curve"/>
      <point x="334" y="175"/>
      <point x="294" y="240"/>
      <point x="266" y="293" type="curve"/>
      <point x="322" y="327"/>
      <point x="386" y="373"/>
      <point x="386" y="456" type="curve" smooth="yes"/>
      <point x="386" y="522"/>
      <point x="335" y="563"/>
      <point x="267" y="563" type="curve" smooth="yes"/>
      <point x="186" y="563"/>
      <point x="116" y="500"/>
      <point x="116" y="417" type="curve" smooth="yes"/>
      <point x="116" y="369"/>
      <point x="142" y="316"/>
      <point x="160" y="282" type="curve"/>
      <point x="100" y="250"/>
      <point x="17" y="203"/>
      <point x="17" y="114" type="curve" smooth="yes"/>
      <point x="17" y="21"/>
      <point x="90" y="-16"/>
      <point x="172" y="-16" type="curve" smooth="yes"/>
      <point x="226" y="-16"/>
      <point x="284" y="0"/>
      <point x="327" y="28" type="curve"/>
      <point x="332" y="19"/>
      <point x="362" y="-25"/>
      <point x="399" y="-60" type="curve" smooth="yes"/>
      <point x="419" y="-79"/>
      <point x="447" y="-82"/>
    </contour>
  </outline>
</glyph>
<glyph name="parenleft" format="1">
  <advance width="355"/>
  <unicode hex="0028"/>
  <outline>
    <contour>
      <point x="373" y="-131" type="curve" smooth="yes"/>
      <point x="375" y="-131"/>
      <point x="376" y="-132"/>
      <point x="378" y="-132" type="curve" smooth="yes"/>
      <point x="394" y="-132"/>
      <point x="410" y="-108"/>
      <point x="410" y="-87" type="curve" smooth="yes"/>
      <point x="410" y="-76"/>
      <point x="406" y="-66"/>
      <point x="395" y="-60" type="curve" smooth="yes"/>
      <point x="311" y="-15"/>
      <point x="273" y="74"/>
      <point x="273" y="175" type="curve" smooth="yes"/>
      <point x="273" y="314"/>
      <point x="346" y="474"/>
      <point x="473" y="568" type="curve" smooth="yes"/>
      <point x="482" y="574"/>
      <point x="485" y="582"/>
      <point x="485" y="591" type="curve" smooth="yes"/>
      <point x="485" y="612"/>
      <point x="465" y="634"/>
      <point x="447" y="634" type="curve" smooth="yes"/>
      <point x="443" y="634"/>
      <point x="440" y="633"/>
      <point x="436" y="631" type="curve" smooth="yes"/>
      <point x="264" y="516"/>
      <point x="162" y="324"/>
      <point x="162" y="159" type="curve" smooth="yes"/>
      <point x="162" y="27"/>
      <point x="227" y="-87"/>
    </contour>
  </outline>
</glyph>
<glyph name="parenright" format="1">
  <advance width="398"/>
  <unicode hex="0029"/>
  <outline>
    <contour>
      <point x="71" y="-134" type="curve" smooth="yes"/>
      <point x="266" y="-67"/>
      <point x="359" y="80"/>
      <point x="359" y="240" type="curve" smooth="yes"/>
      <point x="359" y="377"/>
      <point x="291" y="522"/>
      <point x="159" y="634" type="curve" smooth="yes"/>
      <point x="155" y="638"/>
      <point x="150" y="639"/>
      <point x="145" y="639" type="curve" smooth="yes"/>
      <point x="126" y="639"/>
      <point x="105" y="617"/>
      <point x="105" y="594" type="curve" smooth="yes"/>
      <point x="105" y="585"/>
      <point x="108" y="576"/>
      <point x="116" y="568" type="curve" smooth="yes"/>
      <point x="200" y="482"/>
      <point x="241" y="374"/>
      <point x="241" y="270" type="curve" smooth="yes"/>
      <point x="241" y="134"/>
      <point x="172" y="5"/>
      <point x="40" y="-60" type="curve" smooth="yes"/>
      <point x="25" y="-67"/>
      <point x="18" y="-80"/>
      <point x="18" y="-93" type="curve" smooth="yes"/>
      <point x="18" y="-114"/>
      <point x="36" y="-136"/>
      <point x="59" y="-136" type="curve" smooth="yes"/>
      <point x="63" y="-136"/>
      <point x="67" y="-135"/>
    </contour>
  </outline>
</glyph>
<glyph name="period" format="1">
  <advance width="296"/>
  <unicode hex="002E"/>
  <outline>
    <contour>
      <point x="190" y="0" type="curve" smooth="yes"/>
      <point x="237" y="0"/>
      <point x="265" y="32"/>
      <point x="265" y="78" type="curve" smooth="yes"/>
      <point x="265" y="121"/>
      <point x="240" y="143"/>
      <point x="196" y="143" type="curve" smooth="yes"/>
      <point x="149" y="143"/>
      <point x="122" y="113"/>
      <point x="122" y="67" type="curve" smooth="yes"/>
      <point x="122" y="24"/>
      <point x="146" y="0"/>
    </contour>
  </outline>
</glyph>
<glyph name="slash" format="1">
  <advance width="426"/>
  <unicode hex="002F"/>
  <outline>
    <contour>
      <point x="136" y="12" type="curve" smooth="yes"/>
      <point x="136" y="-7"/>
      <point x="149" y="-26"/>
      <point x="172" y="-26" type="curve" smooth="yes"/>
      <point x="192" y="-26"/>
      <point x="207" y="-4"/>
      <point x="222" y="28" type="curve" smooth="yes"/>
      <point x="454" y="539" type="line" smooth="yes"/>
      <point x="464" y="561"/>
      <point x="470" y="578"/>
      <point x="470" y="591" type="curve" smooth="yes"/>
      <point x="470" y="608"/>
      <point x="452" y="626"/>
      <point x="427" y="626" type="curve" smooth="yes"/>
      <point x="407" y="626"/>
      <point x="399" y="605"/>
      <point x="383" y="569" type="curve" smooth="yes"/>
      <point x="148" y="55" type="line" smooth="yes"/>
      <point x="140" y="38"/>
      <point x="136" y="24"/>
    </contour>
  </outline>
</glyph>
<glyph name="semicolon" format="1">
  <advance width="339"/>
  <unicode hex="003B"/>
  <outline>
    <contour>
      <point x="231" y="222" type="curve" smooth="yes"/>
      <point x="276" y="222"/>
      <point x="301" y="253"/>
      <point x="301" y="295" type="curve" smooth="yes"/>
      <point x="301" y="335"/>
      <point x="277" y="358"/>
      <point x="237" y="358" type="curve" smooth="yes"/>
      <point x="193" y="358"/>
      <point x="169" y="327"/>
      <point x="169" y="285" type="curve" smooth="yes"/>
      <point x="169" y="246"/>
      <point x="192" y="222"/>
    </contour>
    <contour>
      <point x="166" y="-66" type="curve" smooth="yes"/>
      <point x="167" y="-66" type="line" smooth="yes"/>
      <point x="199" y="-66"/>
      <point x="250" y="-32"/>
      <point x="263" y="70" type="curve" smooth="yes"/>
      <point x="263" y="73"/>
      <point x="264" y="76"/>
      <point x="264" y="79" type="curve" smooth="yes"/>
      <point x="264" y="106"/>
      <point x="246" y="124"/>
      <point x="212" y="124" type="curve" smooth="yes"/>
      <point x="179" y="124"/>
      <point x="157" y="105"/>
      <point x="157" y="80" type="curve" smooth="yes"/>
      <point x="157" y="73"/>
      <point x="158" y="66"/>
      <point x="158" y="60" type="curve" smooth="yes"/>
      <point x="158" y="8"/>
      <point x="139" y="-23"/>
      <point x="139" y="-43" type="curve" smooth="yes"/>
      <point x="139" y="-57"/>
      <point x="150" y="-66"/>
    </contour>
  </outline>
</glyph>
<glyph name="less" format="1">
  <advance width="404"/>
  <unicode hex="003C"/>
  <outline>
    <contour>
      <point x="344" y="138" type="curve" smooth="yes"/>
      <point x="154" y="205" type="line"/>
      <point x="359" y="270" type="line" smooth="yes"/>
      <point x="373" y="274"/>
      <point x="388" y="281"/>
      <point x="388" y="304" type="curve" smooth="yes"/>
      <point x="388" y="342"/>
      <point x="376" y="369"/>
      <point x="345" y="369" type="curve" smooth="yes"/>
      <point x="336" y="369"/>
      <point x="327" y="367"/>
      <point x="315" y="362" type="curve" smooth="yes"/>
      <point x="112" y="282" type="line" smooth="yes"/>
      <point x="86" y="272"/>
      <point x="41" y="262"/>
      <point x="41" y="198" type="curve" smooth="yes"/>
      <point x="41" y="149"/>
      <point x="54" y="139"/>
      <point x="119" y="115" type="curve" smooth="yes"/>
      <point x="294" y="50" type="line" smooth="yes"/>
      <point x="313" y="43"/>
      <point x="328" y="40"/>
      <point x="340" y="40" type="curve" smooth="yes"/>
      <point x="359" y="40"/>
      <point x="370" y="48"/>
      <point x="377" y="61" type="curve" smooth="yes"/>
      <point x="383" y="74"/>
      <point x="386" y="85"/>
      <point x="386" y="94" type="curve" smooth="yes"/>
      <point x="386" y="120"/>
      <point x="364" y="131"/>
    </contour>
  </outline>
</glyph>
<glyph name="equal" format="1">
  <advance width="583"/>
  <unicode hex="003D"/>
  <outline>
    <contour>
      <point x="173" y="239" type="curve" smooth="yes"/>
      <point x="500" y="239" type="line" smooth="yes"/>
      <point x="548" y="239"/>
      <point x="568" y="247"/>
      <point x="568" y="287" type="curve" smooth="yes"/>
      <point x="568" y="318"/>
      <point x="547" y="322"/>
      <point x="512" y="322" type="curve" smooth="yes"/>
      <point x="448" y="322"/>
      <point x="253" y="319"/>
      <point x="198" y="319" type="curve" smooth="yes"/>
      <point x="179" y="319" type="line" smooth="yes"/>
      <point x="148" y="319"/>
      <point x="121" y="315"/>
      <point x="121" y="277" type="curve" smooth="yes"/>
      <point x="121" y="248"/>
      <point x="145" y="239"/>
    </contour>
    <contour>
      <point x="562" y="127" type="curve" smooth="yes"/>
      <point x="562" y="159"/>
      <point x="546" y="168"/>
      <point x="507" y="168" type="curve" smooth="yes"/>
      <point x="179" y="168" type="line" smooth="yes"/>
      <point x="140" y="168"/>
      <point x="113" y="165"/>
      <point x="113" y="142" type="curve" smooth="yes"/>
      <point x="113" y="104"/>
      <point x="137" y="92"/>
      <point x="177" y="92" type="curve" smooth="yes"/>
      <point x="508" y="92" type="line" smooth="yes"/>
      <point x="542" y="92"/>
      <point x="562" y="102"/>
    </contour>
  </outline>
</glyph>
<glyph name="E" format="1">
  <advance width="576"/>
  <unicode hex="0045"/>
  <outline>
    <contour>
      <point x="413" y="708" type="move" name="top"/>
    </contour>
    <contour>
      <point x="271" y="-89" type="move" name="bot"/>
    </contour>
    <contour>
      <point x="352" y="-87" type="move" name="ogonek"/>
    </contour>
    <contour>
      <point x="122" y="491" type="curve" smooth="yes"/>
      <point x="122" y="409"/>
      <point x="184" y="336"/>
      <point x="310" y="331" type="curve"/>
      <point x="140" y="331"/>
      <point x="45" y="208"/>
      <point x="45" y="90" type="curve" smooth="yes"/>
      <point x="45" y="-16"/>
      <point x="125" y="-110"/>
      <point x="287" y="-110" type="curve" smooth="yes"/>
      <point x="459" y="-110"/>
      <point x="611" y="-9"/>
      <point x="681" y="69" type="curve" smooth="yes"/>
      <point x="690" y="78"/>
      <point x="693" y="88"/>
      <point x="693" y="99" type="curve" smooth="yes"/>
      <point x="693" y="124"/>
      <point x="677" y="153"/>
      <point x="652" y="153" type="curve" smooth="yes"/>
      <point x="642" y="153"/>
      <point x="631" y="147"/>
      <point x="620" y="136" type="curve" smooth="yes"/>
      <point x="536" y="48"/>
      <point x="408" y="-12"/>
      <point x="306" y="-12" type="curve" smooth="yes"/>
      <point x="229" y="-12"/>
      <point x="168" y="25"/>
      <point x="168" y="112" type="curve" smooth="yes"/>
      <point x="168" y="191"/>
      <point x="232" y="266"/>
      <point x="390" y="274" type="curve" smooth="yes"/>
      <point x="433" y="276"/>
      <point x="443" y="298"/>
      <point x="443" y="325" type="curve" smooth="yes"/>
      <point x="443" y="345"/>
      <point x="430" y="368"/>
      <point x="404" y="372" type="curve" smooth="yes"/>
      <point x="288" y="391"/>
      <point x="250" y="416"/>
      <point x="250" y="498" type="curve" smooth="yes"/>
      <point x="250" y="592"/>
      <point x="349" y="641"/>
      <point x="442" y="641" type="curve" smooth="yes"/>
      <point x="488" y="641"/>
      <point x="532" y="629"/>
      <point x="562" y="604" type="curve"/>
      <point x="519" y="591"/>
      <point x="506" y="565"/>
      <point x="506" y="539" type="curve" smooth="yes"/>
      <point x="506" y="498"/>
      <point x="533" y="474"/>
      <point x="573" y="474" type="curve" smooth="yes"/>
      <point x="612" y="474"/>
      <point x="651" y="499"/>
      <point x="651" y="556" type="curve" smooth="yes"/>
      <point x="651" y="665"/>
      <point x="535" y="718"/>
      <point x="414" y="718" type="curve" smooth="yes"/>
      <point x="272" y="717"/>
      <point x="122" y="644"/>
    </contour>
  </outline>
</glyph>
<glyph name="G" format="1">
  <advance width="703"/>
  <unicode hex="0047"/>
  <outline>
    <contour>
      <point x="567" y="708" type="move" name="top"/>
    </contour>
    <contour>
      <point x="277" y="-321" type="move" name="bot"/>
    </contour>
    <contour>
      <point x="45" y="205" type="curve" smooth="yes"/>
      <point x="45" y="6"/>
      <point x="186" y="-56"/>
      <point x="329" y="-56" type="curve" smooth="yes"/>
      <point x="444" y="-56"/>
      <point x="554" y="-16"/>
      <point x="575" y="20" type="curve"/>
      <point x="521" y="-152"/>
      <point x="475" y="-212"/>
      <point x="396" y="-212" type="curve" smooth="yes"/>
      <point x="371" y="-212"/>
      <point x="343" y="-206"/>
      <point x="311" y="-196" type="curve" smooth="yes"/>
      <point x="307" y="-195"/>
      <point x="303" y="-194"/>
      <point x="299" y="-194" type="curve" smooth="yes"/>
      <point x="269" y="-194"/>
      <point x="241" y="-226"/>
      <point x="241" y="-258" type="curve" smooth="yes"/>
      <point x="241" y="-279"/>
      <point x="253" y="-299"/>
      <point x="284" y="-311" type="curve" smooth="yes"/>
      <point x="324" y="-326"/>
      <point x="362" y="-334"/>
      <point x="396" y="-334" type="curve" smooth="yes"/>
      <point x="546" y="-334"/>
      <point x="639" y="-188"/>
      <point x="691" y="117" type="curve" smooth="yes"/>
      <point x="694" y="131"/>
      <point x="695" y="144"/>
      <point x="695" y="155" type="curve" smooth="yes"/>
      <point x="695" y="211"/>
      <point x="656" y="227"/>
      <point x="556" y="227" type="curve" smooth="yes"/>
      <point x="523" y="227"/>
      <point x="487" y="215"/>
      <point x="487" y="178" type="curve" smooth="yes"/>
      <point x="487" y="142"/>
      <point x="514" y="134"/>
      <point x="553" y="134" type="curve" smooth="yes"/>
      <point x="580" y="134"/>
      <point x="591" y="134"/>
      <point x="591" y="119" type="curve" smooth="yes"/>
      <point x="591" y="116"/>
      <point x="591" y="112"/>
      <point x="590" y="108" type="curve" smooth="yes"/>
      <point x="584" y="77" type="line"/>
      <point x="498" y="47"/>
      <point x="420" y="30"/>
      <point x="356" y="30" type="curve" smooth="yes"/>
      <point x="238" y="30"/>
      <point x="164" y="85"/>
      <point x="164" y="209" type="curve" smooth="yes"/>
      <point x="164" y="460"/>
      <point x="372" y="580"/>
      <point x="495" y="580" type="curve" smooth="yes"/>
      <point x="547" y="580"/>
      <point x="583" y="558"/>
      <point x="583" y="517" type="curve" smooth="yes"/>
      <point x="583" y="461"/>
      <point x="612" y="455"/>
      <point x="639" y="455" type="curve" smooth="yes"/>
      <point x="669" y="455"/>
      <point x="697" y="468"/>
      <point x="697" y="513" type="curve" smooth="yes"/>
      <point x="697" y="624"/>
      <point x="613" y="676"/>
      <point x="506" y="676" type="curve" smooth="yes"/>
      <point x="314" y="676"/>
      <point x="45" y="508"/>
    </contour>
  </outline>
</glyph>
<glyph name="H" format="1">
  <advance width="820"/>
  <unicode hex="0048"/>
  <outline>
    <contour>
      <point x="587" y="708" type="move" name="top"/>
    </contour>
    <contour>
      <point x="182" y="600" type="curve" smooth="yes"/>
      <point x="239" y="600"/>
      <point x="281" y="565"/>
      <point x="281" y="493" type="curve" smooth="yes"/>
      <point x="281" y="467"/>
      <point x="275" y="437"/>
      <point x="263" y="401" type="curve" smooth="yes"/>
      <point x="220.995" y="277.946" type="line"/>
      <point x="201.278" y="279.705"/>
      <point x="180.95" y="281.723"/>
      <point x="160" y="284" type="curve" smooth="yes"/>
      <point x="155" y="284" type="line" smooth="yes"/>
      <point x="128" y="284"/>
      <point x="107" y="260"/>
      <point x="107" y="238" type="curve" smooth="yes"/>
      <point x="107" y="223"/>
      <point x="117" y="210"/>
      <point x="141" y="207" type="curve" smooth="yes"/>
      <point x="159.232" y="204.582"/>
      <point x="177.082" y="202.405"/>
      <point x="194.546" y="200.465" type="curve"/>
      <point x="107" y="-56" type="line" smooth="yes"/>
      <point x="99" y="-79"/>
      <point x="95" y="-96"/>
      <point x="95" y="-110" type="curve" smooth="yes"/>
      <point x="95" y="-143"/>
      <point x="116" y="-152"/>
      <point x="136" y="-157" type="curve" smooth="yes"/>
      <point x="142" y="-158"/>
      <point x="147" y="-159"/>
      <point x="152" y="-159" type="curve" smooth="yes"/>
      <point x="188" y="-159"/>
      <point x="205" y="-125"/>
      <point x="216" y="-89" type="curve" smooth="yes"/>
      <point x="304.095" y="191.015" type="line"/>
      <point x="338.318" y="188.983"/>
      <point x="370.642" y="188"/>
      <point x="401" y="188" type="curve" smooth="yes"/>
      <point x="432.937" y="188"/>
      <point x="462.951" y="189.02"/>
      <point x="491.153" y="190.951" type="curve"/>
      <point x="476" y="143" type="line" smooth="yes"/>
      <point x="459" y="89"/>
      <point x="451" y="43"/>
      <point x="451" y="4" type="curve" smooth="yes"/>
      <point x="451" y="-108"/>
      <point x="515" y="-158"/>
      <point x="599" y="-158" type="curve" smooth="yes"/>
      <point x="662" y="-158"/>
      <point x="737" y="-129"/>
      <point x="804" y="-76" type="curve" smooth="yes"/>
      <point x="814" y="-68"/>
      <point x="818" y="-56"/>
      <point x="818" y="-43" type="curve" smooth="yes"/>
      <point x="818" y="-18"/>
      <point x="802" y="9"/>
      <point x="783" y="9" type="curve" smooth="yes"/>
      <point x="779" y="9"/>
      <point x="775" y="8"/>
      <point x="771" y="5" type="curve" smooth="yes"/>
      <point x="727" y="-23"/>
      <point x="664" y="-58"/>
      <point x="619" y="-58" type="curve" smooth="yes"/>
      <point x="584" y="-58"/>
      <point x="559" y="-38"/>
      <point x="559" y="23" type="curve" smooth="yes"/>
      <point x="559" y="51"/>
      <point x="564" y="86"/>
      <point x="576" y="132" type="curve" smooth="yes"/>
      <point x="594.534" y="203.261" type="line"/>
      <point x="868.74" y="251.667"/>
      <point x="918" y="403.371"/>
      <point x="918" y="485" type="curve" smooth="yes"/>
      <point x="918" y="568"/>
      <point x="858" y="628"/>
      <point x="784" y="628" type="curve" smooth="yes"/>
      <point x="704" y="628"/>
      <point x="607" y="559"/>
      <point x="549" y="374" type="curve" smooth="yes"/>
      <point x="517.405" y="274.022" type="line"/>
      <point x="482.663" y="270.776"/>
      <point x="444.008" y="269"/>
      <point x="401" y="269" type="curve" smooth="yes"/>
      <point x="378.255" y="269"/>
      <point x="354.314" y="269.543"/>
      <point x="329.142" y="270.63" type="curve"/>
      <point x="356" y="356" type="line" smooth="yes"/>
      <point x="376" y="420"/>
      <point x="387" y="475"/>
      <point x="387" y="521" type="curve" smooth="yes"/>
      <point x="387" y="586"/>
      <point x="365" y="633"/>
      <point x="314" y="663" type="curve" smooth="yes"/>
      <point x="281" y="682"/>
      <point x="242" y="692"/>
      <point x="203" y="692" type="curve" smooth="yes"/>
      <point x="80" y="692"/>
      <point x="-54" y="601"/>
      <point x="-90" y="439" type="curve" smooth="yes"/>
      <point x="-91" y="435"/>
      <point x="-91" y="431"/>
      <point x="-91" y="427" type="curve" smooth="yes"/>
      <point x="-91" y="402"/>
      <point x="-73" y="383"/>
      <point x="-52" y="383" type="curve" smooth="yes"/>
      <point x="-34" y="383"/>
      <point x="-13" y="397"/>
      <point x="0" y="432" type="curve" smooth="yes"/>
      <point x="43" y="542"/>
      <point x="106" y="600"/>
    </contour>
    <contour>
      <point x="616.918" y="289.323" type="curve"/>
      <point x="634" y="355" type="line" smooth="yes"/>
      <point x="669" y="491"/>
      <point x="733" y="548"/>
      <point x="777" y="548" type="curve" smooth="yes"/>
      <point x="806" y="548"/>
      <point x="827" y="524"/>
      <point x="827" y="483" type="curve" smooth="yes"/>
      <point x="827" y="479"/>
      <point x="826" y="476"/>
      <point x="826" y="472" type="curve" smooth="yes"/>
      <point x="821.432" y="420.229"/>
      <point x="794.838" y="329.623"/>
    </contour>
  </outline>
</glyph>
<glyph name="J" format="1">
  <advance width="523"/>
  <unicode hex="004A"/>
  <outline>
    <contour>
      <point x="587" y="708" type="move" name="top"/>
    </contour>
    <contour>
      <point x="510.365" y="577.736" type="curve"/>
      <point x="458.723" y="370.289"/>
      <point x="309.615" y="-114"/>
      <point x="215" y="-114" type="curve" smooth="yes"/>
      <point x="160" y="-114"/>
      <point x="144" y="-85"/>
      <point x="138" y="16" type="curve" smooth="yes"/>
      <point x="136" y="45"/>
      <point x="118" y="61"/>
      <point x="100" y="61" type="curve" smooth="yes"/>
      <point x="81" y="61"/>
      <point x="63" y="43"/>
      <point x="63" y="4" type="curve" smooth="yes"/>
      <point x="67" y="-147"/>
      <point x="109" y="-222"/>
      <point x="223" y="-222" type="curve" smooth="yes"/>
      <point x="384.714" y="-222"/>
      <point x="487.401" y="125.898"/>
      <point x="608.028" y="574.729" type="curve"/>
      <point x="642.808" y="573.709"/>
      <point x="671.284" y="573"/>
      <point x="687" y="573" type="curve" smooth="yes"/>
      <point x="754" y="573"/>
      <point x="767" y="577"/>
      <point x="779" y="584" type="curve" smooth="yes"/>
      <point x="795" y="593"/>
      <point x="801" y="610"/>
      <point x="801" y="632" type="curve" smooth="yes"/>
      <point x="801" y="642" type="line" smooth="yes"/>
      <point x="801" y="662"/>
      <point x="792" y="680"/>
      <point x="748" y="681" type="curve" smooth="yes"/>
      <point x="703.526" y="681"/>
      <point x="662.502" y="682.488"/>
      <point x="623.433" y="684.69" type="curve"/>
      <point x="615.707" y="693.635"/>
      <point x="601.597" y="700"/>
      <point x="579" y="700" type="curve" smooth="yes"/>
      <point x="565.002" y="700"/>
      <point x="553.753" y="697.751"/>
      <point x="545.004" y="690.003" type="curve"/>
      <point x="465.034" y="696.081"/>
      <point x="389.364" y="703"/>
      <point x="303" y="703" type="curve" smooth="yes"/>
      <point x="166" y="703"/>
      <point x="48" y="674"/>
      <point x="-4" y="503" type="curve" smooth="yes"/>
      <point x="-6" y="496"/>
      <point x="-7" y="490"/>
      <point x="-7" y="485" type="curve" smooth="yes"/>
      <point x="-7" y="463"/>
      <point x="7" y="454"/>
      <point x="23" y="454" type="curve" smooth="yes"/>
      <point x="37" y="454"/>
      <point x="53" y="462"/>
      <point x="60" y="476" type="curve" smooth="yes"/>
      <point x="102" y="558"/>
      <point x="145" y="582"/>
      <point x="325" y="582" type="curve" smooth="yes"/>
      <point x="367.458" y="582"/>
      <point x="440.178" y="579.905"/>
    </contour>
  </outline>
</glyph>
<glyph name="L" format="1">
  <advance width="645"/>
  <unicode hex="004C"/>
  <outline>
    <contour>
      <point x="703" y="481" type="move" name="caron.alt"/>
    </contour>
    <contour>
      <point x="687" y="708" type="move" name="top"/>
    </contour>
    <contour>
      <point x="401" y="-160" type="move" name="bot"/>
    </contour>
    <contour>
      <point x="169" y="110" type="curve" smooth="yes"/>
      <point x="86" y="110"/>
      <point x="41" y="50"/>
      <point x="41" y="-10" type="curve" smooth="yes"/>
      <point x="41" y="-66"/>
      <point x="81" y="-121"/>
      <point x="170" y="-121" type="curve" smooth="yes"/>
      <point x="182" y="-121" type="line" smooth="yes"/>
      <point x="262.476" y="-116.993"/>
      <point x="322.658" y="-92.2455"/>
      <point x="367.647" y="-51.9707" type="curve"/>
      <point x="491.374" y="-126.316"/>
      <point x="638.311" y="-225"/>
      <point x="753" y="-225" type="curve" smooth="yes"/>
      <point x="810" y="-225"/>
      <point x="859" y="-200"/>
      <point x="894" y="-136" type="curve" smooth="yes"/>
      <point x="898" y="-128"/>
      <point x="900" y="-120"/>
      <point x="900" y="-113" type="curve" smooth="yes"/>
      <point x="900" y="-89"/>
      <point x="879" y="-71"/>
      <point x="857" y="-71" type="curve" smooth="yes"/>
      <point x="845" y="-71"/>
      <point x="832" y="-77"/>
      <point x="824" y="-89" type="curve" smooth="yes"/>
      <point x="802" y="-123"/>
      <point x="772" y="-137"/>
      <point x="738" y="-137" type="curve" smooth="yes"/>
      <point x="654.438" y="-137"/>
      <point x="540.57" y="-53.8256"/>
      <point x="422.384" y="15.9923" type="curve"/>
      <point x="468.452" y="94.621"/>
      <point x="487.436" y="200.93"/>
      <point x="495.129" y="318.781" type="curve"/>
      <point x="507.834" y="318.258"/>
      <point x="520.123" y="318"/>
      <point x="532" y="318" type="curve" smooth="yes"/>
      <point x="761" y="318"/>
      <point x="845" y="409"/>
      <point x="858" y="501" type="curve" smooth="yes"/>
      <point x="859" y="510"/>
      <point x="860" y="519"/>
      <point x="860" y="528" type="curve" smooth="yes"/>
      <point x="860" y="635"/>
      <point x="766" y="701"/>
      <point x="635" y="701" type="curve" smooth="yes"/>
      <point x="532" y="701"/>
      <point x="401" y="655"/>
      <point x="383" y="417" type="curve" smooth="yes"/>
      <point x="382.793" y="414.153"/>
      <point x="382.586" y="411.295"/>
      <point x="382.38" y="408.429" type="curve"/>
      <point x="349.874" y="412.851"/>
      <point x="314.812" y="418.955"/>
      <point x="277" y="427" type="curve" smooth="yes"/>
      <point x="274" y="428"/>
      <point x="271" y="428"/>
      <point x="268" y="428" type="curve" smooth="yes"/>
      <point x="245" y="428"/>
      <point x="232" y="407"/>
      <point x="232" y="387" type="curve" smooth="yes"/>
      <point x="232" y="370"/>
      <point x="241" y="354"/>
      <point x="261" y="350" type="curve" smooth="yes"/>
      <point x="302.026" y="341.565"/>
      <point x="340.553" y="334.894"/>
      <point x="376.637" y="329.874" type="curve"/>
      <point x="369.155" y="234.449"/>
      <point x="358.288" y="137.314"/>
      <point x="330.511" y="65.6973" type="curve"/>
      <point x="275.285" y="91.9904"/>
      <point x="220.575" y="110"/>
    </contour>
    <contour>
      <point x="287.827" y="-6.64644" type="curve"/>
      <point x="264.588" y="-31.5073"/>
      <point x="234.995" y="-46"/>
      <point x="197" y="-46" type="curve" smooth="yes"/>
      <point x="161" y="-46"/>
      <point x="138" y="-31"/>
      <point x="138" y="-7" type="curve" smooth="yes"/>
      <point x="138" y="13"/>
      <point x="154" y="29"/>
      <point x="181" y="29" type="curve" smooth="yes"/>
      <point x="209.505" y="29"/>
      <point x="246.112" y="14.9041"/>
    </contour>
    <contour>
      <point x="500.976" y="399.067" type="curve"/>
      <point x="516.604" y="564.023"/>
      <point x="550.933" y="614"/>
      <point x="640" y="614" type="curve" smooth="yes"/>
      <point x="706" y="614"/>
      <point x="750" y="583"/>
      <point x="750" y="528" type="curve" smooth="yes"/>
      <point x="750" y="468"/>
      <point x="691" y="399"/>
      <point x="511" y="399" type="curve" smooth="yes"/>
      <point x="507.697" y="399"/>
      <point x="504.356" y="399.022"/>
    </contour>
  </outline>
</glyph>
<glyph name="O" format="1">
  <advance width="662"/>
  <unicode hex="004F"/>
  <outline>
    <contour>
      <point x="467" y="708" type="move" name="top"/>
    </contour>
    <contour>
      <point x="348" y="-90" type="move" name="ogonek"/>
    </contour>
    <contour>
      <point x="56" y="235" type="curve" smooth="yes"/>
      <point x="56" y="53"/>
      <point x="149" y="-104"/>
      <point x="342" y="-104" type="curve" smooth="yes"/>
      <point x="578" y="-104"/>
      <point x="698" y="114"/>
      <point x="698" y="316" type="curve" smooth="yes"/>
      <point x="698" y="493"/>
      <point x="604" y="658"/>
      <point x="416" y="658" type="curve" smooth="yes"/>
      <point x="178" y="658"/>
      <point x="56" y="438"/>
    </contour>
    <contour>
      <point x="411" y="562" type="curve" smooth="yes"/>
      <point x="522" y="562"/>
      <point x="576" y="447"/>
      <point x="576" y="318" type="curve" smooth="yes"/>
      <point x="576" y="163"/>
      <point x="499" y="-5"/>
      <point x="342" y="-5" type="curve" smooth="yes"/>
      <point x="226" y="-5"/>
      <point x="172" y="113"/>
      <point x="172" y="244" type="curve" smooth="yes"/>
      <point x="172" y="397"/>
      <point x="249" y="562"/>
    </contour>
  </outline>
</glyph>
<glyph name="asciicircum" format="1">
  <advance width="372"/>
  <unicode hex="005E"/>
  <outline>
    <contour>
      <point x="68" y="164" type="curve"/>
      <point x="66" y="164"/>
      <point x="101" y="180"/>
      <point x="114" y="203" type="curve" smooth="yes"/>
      <point x="114" y="203"/>
      <point x="189.794" y="343.262"/>
      <point x="199.893" y="370.083" type="curve"/>
      <point x="207.991" y="345.722"/>
      <point x="263" y="216"/>
      <point x="263" y="216" type="curve"/>
      <point x="271" y="198"/>
      <point x="289" y="168"/>
      <point x="319" y="168" type="curve" smooth="yes"/>
      <point x="340" y="168"/>
      <point x="356" y="187"/>
      <point x="356" y="212" type="curve" smooth="yes"/>
      <point x="356" y="219"/>
      <point x="355" y="226"/>
      <point x="352" y="234" type="curve" smooth="yes"/>
      <point x="329" y="295"/>
      <point x="301" y="354"/>
      <point x="275" y="408" type="curve" smooth="yes"/>
      <point x="259" y="439"/>
      <point x="239" y="465"/>
      <point x="194" y="465" type="curve" smooth="yes"/>
      <point x="149" y="465"/>
      <point x="130" y="421"/>
      <point x="113" y="390" type="curve" smooth="yes"/>
      <point x="95" y="356"/>
      <point x="76" y="321"/>
      <point x="57" y="286" type="curve" smooth="yes"/>
      <point x="47" y="265"/>
      <point x="26" y="242"/>
      <point x="26" y="212" type="curve" smooth="yes"/>
      <point x="26" y="195"/>
      <point x="65" y="164"/>
    </contour>
  </outline>
</glyph>
<glyph name="b" format="1">
  <advance width="390"/>
  <unicode hex="0062"/>
  <outline>
    <contour>
      <point x="437" y="343" type="move" name="top"/>
    </contour>
    <contour>
      <point x="134" y="260" type="curve"/>
      <point x="128" y="285"/>
      <point x="195" y="558"/>
      <point x="261" y="558" type="curve" smooth="yes"/>
      <point x="268" y="558"/>
      <point x="273" y="554"/>
      <point x="273" y="538" type="curve" smooth="yes"/>
      <point x="273" y="534"/>
      <point x="273" y="529"/>
      <point x="272" y="524" type="curve" smooth="yes"/>
      <point x="259" y="452"/>
      <point x="221" y="376"/>
    </contour>
    <contour>
      <point x="365" y="251" type="curve" smooth="yes"/>
      <point x="365" y="295"/>
      <point x="332" y="319"/>
      <point x="306" y="319" type="curve" smooth="yes"/>
      <point x="269.622" y="319"/>
      <point x="236.421" y="302.061"/>
      <point x="221.029" y="292.061" type="curve"/>
      <point x="287.979" y="354.3"/>
      <point x="349.422" y="494.492"/>
      <point x="360" y="557" type="curve" smooth="yes"/>
      <point x="361" y="565"/>
      <point x="362" y="573"/>
      <point x="362" y="581" type="curve" smooth="yes"/>
      <point x="362" y="617"/>
      <point x="347" y="656"/>
      <point x="295" y="656" type="curve" smooth="yes"/>
      <point x="145" y="656"/>
      <point x="40" y="354"/>
      <point x="34" y="147" type="curve" smooth="yes"/>
      <point x="34" y="141" type="line" smooth="yes"/>
      <point x="34" y="50"/>
      <point x="98" y="-5"/>
      <point x="192" y="-5" type="curve" smooth="yes"/>
      <point x="265.435" y="-5"/>
      <point x="320.151" y="41.5544"/>
      <point x="346.841" y="123.026" type="curve"/>
      <point x="392.825" y="127.05"/>
      <point x="440.879" y="142.591"/>
      <point x="464" y="164" type="curve" smooth="yes"/>
      <point x="476" y="175"/>
      <point x="478" y="183"/>
      <point x="478" y="196" type="curve" smooth="yes"/>
      <point x="478" y="213"/>
      <point x="469" y="227"/>
      <point x="450" y="227" type="curve" smooth="yes"/>
      <point x="435.137" y="227"/>
      <point x="404.224" y="192.605"/>
      <point x="360.6" y="183.955" type="curve"/>
      <point x="363.502" y="204.84"/>
      <point x="365" y="227.227"/>
    </contour>
    <contour>
      <point x="259.126" y="131.748" type="curve"/>
      <point x="248.008" y="98.2987"/>
      <point x="227.55" y="73"/>
      <point x="198" y="73" type="curve" smooth="yes"/>
      <point x="156" y="73"/>
      <point x="147" y="115"/>
      <point x="147" y="145" type="curve" smooth="yes"/>
      <point x="147" y="200"/>
      <point x="187" y="252"/>
      <point x="237" y="252" type="curve" smooth="yes"/>
      <point x="267" y="252"/>
      <point x="273" y="246"/>
      <point x="273" y="235" type="curve" smooth="yes"/>
      <point x="273" y="231.866"/>
      <point x="272.515" y="228.247"/>
      <point x="271.883" y="224.143" type="curve" smooth="yes"/>
      <point x="252.438" y="215.907"/>
      <point x="234" y="195.967"/>
      <point x="234" y="179" type="curve" smooth="yes"/>
      <point x="234" y="153.897"/>
      <point x="243.449" y="139.697"/>
    </contour>
  </outline>
</glyph>
<glyph name="h" format="1">
  <advance width="391"/>
  <unicode hex="0068"/>
  <outline>
    <contour>
      <point x="152" y="482" type="move" name="mid"/>
    </contour>
    <contour>
      <point x="345" y="687" type="move" name="top"/>
    </contour>
    <contour>
      <point x="287" y="592" type="curve" smooth="yes"/>
      <point x="300" y="592"/>
      <point x="306" y="585"/>
      <point x="306" y="572" type="curve" smooth="yes"/>
      <point x="306" y="532"/>
      <point x="247" y="439"/>
      <point x="163" y="354" type="curve"/>
      <point x="172" y="394"/>
      <point x="219" y="592"/>
    </contour>
    <contour>
      <point x="39" y="72" type="curve" smooth="yes"/>
      <point x="39" y="36"/>
      <point x="45" y="0"/>
      <point x="79" y="-0" type="curve" smooth="yes"/>
      <point x="109" y="0"/>
      <point x="112" y="16"/>
      <point x="120" y="43" type="curve" smooth="yes"/>
      <point x="136" y="103"/>
      <point x="236" y="225"/>
      <point x="263" y="225" type="curve" smooth="yes"/>
      <point x="267" y="225"/>
      <point x="268" y="223"/>
      <point x="268" y="219" type="curve" smooth="yes"/>
      <point x="268" y="194"/>
      <point x="215" y="104"/>
      <point x="215" y="50" type="curve" smooth="yes"/>
      <point x="215" y="10"/>
      <point x="243" y="-7"/>
      <point x="280" y="-7" type="curve" smooth="yes"/>
      <point x="334" y="-7"/>
      <point x="404" y="23"/>
      <point x="451" y="65" type="curve" smooth="yes"/>
      <point x="468" y="80"/>
      <point x="475" y="95"/>
      <point x="474" y="109" type="curve" smooth="yes"/>
      <point x="474" y="116" type="line" smooth="yes"/>
      <point x="474" y="143"/>
      <point x="466" y="157"/>
      <point x="452" y="157" type="curve" smooth="yes"/>
      <point x="448" y="157"/>
      <point x="443" y="155"/>
      <point x="438" y="153" type="curve" smooth="yes"/>
      <point x="431" y="150"/>
      <point x="334" y="77"/>
      <point x="315" y="77" type="curve" smooth="yes"/>
      <point x="309" y="77"/>
      <point x="304" y="81"/>
      <point x="304" y="89" type="curve" smooth="yes"/>
      <point x="304" y="110"/>
      <point x="357" y="197"/>
      <point x="383" y="281" type="curve" smooth="yes"/>
      <point x="384" y="285"/>
      <point x="385" y="288"/>
      <point x="385" y="292" type="curve" smooth="yes"/>
      <point x="385" y="318"/>
      <point x="357" y="332"/>
      <point x="323" y="332" type="curve" smooth="yes"/>
      <point x="283" y="332"/>
      <point x="182" y="278"/>
      <point x="126" y="165" type="curve"/>
      <point x="154" y="284" type="line"/>
      <point x="333" y="420"/>
      <point x="385" y="516"/>
      <point x="397" y="596" type="curve" smooth="yes"/>
      <point x="397" y="605" type="line" smooth="yes"/>
      <point x="397" y="655"/>
      <point x="367" y="690"/>
      <point x="316" y="690" type="curve" smooth="yes"/>
      <point x="139" y="690"/>
      <point x="57" y="314"/>
      <point x="42" y="119" type="curve" smooth="yes"/>
      <point x="41" y="107"/>
      <point x="39" y="90"/>
    </contour>
  </outline>
</glyph>
<glyph name="i" format="1">
  <advance width="205"/>
  <unicode hex="0069"/>
  <outline>
    <contour>
      <point x="0" y="0" type="move" name="ogonek"/>
    </contour>
    <contour>
      <point x="150" y="438" type="curve" smooth="yes"/>
      <point x="150" y="400"/>
      <point x="172" y="382"/>
      <point x="215" y="382" type="curve" smooth="yes"/>
      <point x="252" y="382"/>
      <point x="279" y="404"/>
      <point x="279" y="442" type="curve" smooth="yes"/>
      <point x="279" y="486"/>
      <point x="254" y="500"/>
      <point x="218" y="500" type="curve" smooth="yes"/>
      <point x="182" y="500"/>
      <point x="150" y="476"/>
    </contour>
    <contour>
      <point x="39" y="117" type="curve" smooth="yes"/>
      <point x="39" y="43"/>
      <point x="79" y="-4"/>
      <point x="143" y="-4" type="curve" smooth="yes"/>
      <point x="194" y="-4"/>
      <point x="256" y="25"/>
      <point x="306" y="85" type="curve" smooth="yes"/>
      <point x="314" y="95"/>
      <point x="319" y="99"/>
      <point x="319" y="109" type="curve" smooth="yes"/>
      <point x="319" y="136"/>
      <point x="300" y="149"/>
      <point x="281" y="149" type="curve" smooth="yes"/>
      <point x="272" y="149"/>
      <point x="264" y="145"/>
      <point x="258" y="137" type="curve" smooth="yes"/>
      <point x="218" y="91"/>
      <point x="186" y="71"/>
      <point x="164" y="71" type="curve" smooth="yes"/>
      <point x="142" y="71"/>
      <point x="133" y="91"/>
      <point x="133" y="121" type="curve" smooth="yes"/>
      <point x="133" y="176"/>
      <point x="158" y="238"/>
      <point x="181" y="282" type="curve" smooth="yes"/>
      <point x="184" y="288"/>
      <point x="186" y="294"/>
      <point x="186" y="300" type="curve" smooth="yes"/>
      <point x="186" y="318"/>
      <point x="168" y="331"/>
      <point x="141" y="331" type="curve" smooth="yes"/>
      <point x="120" y="331"/>
      <point x="102" y="321"/>
      <point x="87" y="296" type="curve" smooth="yes"/>
      <point x="60" y="251"/>
      <point x="39" y="174"/>
    </contour>
  </outline>
</glyph>
<glyph name="t" format="1">
  <advance width="268"/>
  <unicode hex="0074"/>
  <outline>
    <contour>
      <point x="147" y="3" type="move" name="bot"/>
    </contour>
    <contour>
      <point x="144" y="395" type="move" name="mid"/>
    </contour>
    <contour>
      <point x="310" y="552" type="move" name="top"/>
    </contour>
    <contour>
      <point x="359" y="551" type="move" name="caron.alt"/>
    </contour>
    <contour>
      <point x="147" y="320" type="curve"/>
      <point x="163" y="421"/>
      <point x="215" y="535"/>
      <point x="268" y="535" type="curve" smooth="yes"/>
      <point x="273" y="535"/>
      <point x="276" y="532"/>
      <point x="276" y="527" type="curve" smooth="yes"/>
      <point x="276" y="446"/>
      <point x="220" y="390"/>
    </contour>
    <contour>
      <point x="357" y="560" type="line" smooth="yes"/>
      <point x="357" y="596"/>
      <point x="335" y="631"/>
      <point x="282" y="631" type="curve" smooth="yes"/>
      <point x="153.043" y="631"/>
      <point x="66.0803" y="386.666"/>
      <point x="49.0857" y="234.605" type="curve"/>
      <point x="39.7827" y="229.54"/>
      <point x="30.7178" y="224.333"/>
      <point x="22" y="219" type="curve" smooth="yes"/>
      <point x="12" y="214"/>
      <point x="8" y="205"/>
      <point x="8" y="194" type="curve" smooth="yes"/>
      <point x="8" y="177"/>
      <point x="20" y="157"/>
      <point x="37" y="157" type="curve" smooth="yes"/>
      <point x="39.4996" y="157"/>
      <point x="42.2491" y="157.5"/>
      <point x="45.1236" y="158.499" type="curve"/>
      <point x="47.0908" y="75.6694"/>
      <point x="72.7863" y="2"/>
      <point x="139" y="2" type="curve" smooth="yes"/>
      <point x="146" y="2" type="line" smooth="yes"/>
      <point x="199" y="8"/>
      <point x="247" y="26"/>
      <point x="304" y="88" type="curve" smooth="yes"/>
      <point x="314" y="98"/>
      <point x="318" y="109"/>
      <point x="318" y="118" type="curve" smooth="yes"/>
      <point x="318" y="138"/>
      <point x="300" y="153"/>
      <point x="282" y="153" type="curve" smooth="yes"/>
      <point x="274" y="153"/>
      <point x="267" y="150"/>
      <point x="261" y="144" type="curve" smooth="yes"/>
      <point x="227" y="109"/>
      <point x="191" y="85"/>
      <point x="163" y="79" type="curve" smooth="yes"/>
      <point x="159" y="79" type="line" smooth="yes"/>
      <point x="136" y="79"/>
      <point x="129" y="120"/>
      <point x="129" y="166" type="curve" smooth="yes"/>
      <point x="129" y="178.786"/>
      <point x="129.51" y="191.741"/>
      <point x="130.32" y="204.376" type="curve"/>
      <point x="187.819" y="231.619"/>
      <point x="259.852" y="260.815"/>
      <point x="297" y="269" type="curve" smooth="yes"/>
      <point x="311" y="272"/>
      <point x="318" y="282"/>
      <point x="318" y="293" type="curve" smooth="yes"/>
      <point x="318" y="309"/>
      <point x="305" y="325"/>
      <point x="285" y="325" type="curve" smooth="yes"/>
      <point x="282" y="325"/>
      <point x="278" y="325"/>
      <point x="275" y="324" type="curve" smooth="yes"/>
      <point x="258.114" y="319.61"/>
      <point x="233.471" y="312.14"/>
      <point x="204.964" y="302.168" type="curve"/>
      <point x="279.362" y="361.897"/>
      <point x="350.168" y="451.55"/>
      <point x="357" y="551" type="curve" smooth="yes"/>
    </contour>
  </outline>
</glyph>
<glyph name="w" format="1">
  <advance width="583"/>
  <unicode hex="0077"/>
  <outline>
    <contour>
      <point x="367" y="343" type="move" name="top"/>
    </contour>
    <contour>
      <point x="372" y="65" type="curve" smooth="yes"/>
      <point x="340" y="65"/>
      <point x="325" y="87"/>
      <point x="325" y="124" type="curve" smooth="yes"/>
      <point x="325" y="130.994"/>
      <point x="325.562" y="138.487"/>
      <point x="326.7" y="146.418" type="curve" smooth="yes"/>
      <point x="334.758" y="165.017"/>
      <point x="343.007" y="184.395"/>
      <point x="352" y="204" type="curve"/>
      <point x="347.753" y="216.477" type="line" smooth="yes"/>
      <point x="349.408" y="220.278"/>
      <point x="351.157" y="224.12"/>
      <point x="353" y="228" type="curve" smooth="yes"/>
      <point x="367" y="258"/>
      <point x="376" y="281"/>
      <point x="376" y="295" type="curve" smooth="yes"/>
      <point x="376" y="309"/>
      <point x="368" y="316"/>
      <point x="351" y="316" type="curve" smooth="yes"/>
      <point x="348" y="316"/>
      <point x="344" y="315"/>
      <point x="341" y="315" type="curve" smooth="yes"/>
      <point x="325.891" y="313.41"/>
      <point x="312.363" y="289.844"/>
      <point x="301.233" y="258.51" type="curve" smooth="yes"/>
      <point x="272" y="197" type="line"/>
      <point x="227" y="86"/>
      <point x="204" y="67"/>
      <point x="189" y="67" type="curve" smooth="yes"/>
      <point x="184" y="67"/>
      <point x="180" y="69"/>
      <point x="177" y="70" type="curve" smooth="yes"/>
      <point x="153" y="73"/>
      <point x="144" y="102"/>
      <point x="144" y="131" type="curve" smooth="yes"/>
      <point x="144" y="141"/>
      <point x="145" y="152"/>
      <point x="147" y="161" type="curve" smooth="yes"/>
      <point x="158" y="212"/>
      <point x="224" y="285"/>
      <point x="228" y="291" type="curve" smooth="yes"/>
      <point x="230" y="293"/>
      <point x="230" y="296"/>
      <point x="230" y="299" type="curve" smooth="yes"/>
      <point x="230" y="315"/>
      <point x="209" y="337"/>
      <point x="184" y="337" type="curve" smooth="yes"/>
      <point x="170" y="337"/>
      <point x="154" y="329"/>
      <point x="141" y="309" type="curve" smooth="yes"/>
      <point x="127" y="287"/>
      <point x="54" y="200"/>
      <point x="54" y="120" type="curve" smooth="yes"/>
      <point x="54" y="40"/>
      <point x="106" y="-7"/>
      <point x="176" y="-7" type="curve" smooth="yes"/>
      <point x="223.534" y="-7"/>
      <point x="254.469" y="16.5145"/>
      <point x="279.322" y="53.0281" type="curve"/>
      <point x="290.925" y="21.376"/>
      <point x="315.454" y="-10"/>
      <point x="364" y="-10" type="curve" smooth="yes"/>
      <point x="374" y="-10" type="line" smooth="yes"/>
      <point x="432" y="-7"/>
      <point x="513" y="51"/>
      <point x="558" y="144" type="curve" smooth="yes"/>
      <point x="559.011" y="145.978"/>
      <point x="559.997" y="147.951"/>
      <point x="560.958" y="149.917" type="curve" smooth="yes"/>
      <point x="575.334" y="147.375"/>
      <point x="590.687" y="146"/>
      <point x="607" y="146" type="curve" smooth="yes"/>
      <point x="638" y="146"/>
      <point x="673" y="151"/>
      <point x="710" y="162" type="curve" smooth="yes"/>
      <point x="723" y="167"/>
      <point x="729" y="177"/>
      <point x="729" y="188" type="curve" smooth="yes"/>
      <point x="729" y="203"/>
      <point x="718" y="219"/>
      <point x="700" y="219" type="curve" smooth="yes"/>
      <point x="694" y="219"/>
      <point x="688" y="218"/>
      <point x="681" y="214" type="curve" smooth="yes"/>
      <point x="656" y="210"/>
      <point x="633" y="208"/>
      <point x="613" y="208" type="curve" smooth="yes"/>
      <point x="602.309" y="208"/>
      <point x="592.413" y="208.538"/>
      <point x="583.264" y="209.539" type="curve"/>
      <point x="588.543" y="230.092"/>
      <point x="591" y="249.66"/>
      <point x="591" y="268" type="curve" smooth="yes"/>
      <point x="591" y="337"/>
      <point x="556" y="385"/>
      <point x="503" y="386" type="curve" smooth="yes"/>
      <point x="439" y="385"/>
      <point x="409" y="347"/>
      <point x="409" y="301" type="curve" smooth="yes"/>
      <point x="409" y="258.651"/>
      <point x="434.992" y="209.899"/>
      <point x="484.894" y="178.555" type="curve" smooth="yes"/>
      <point x="483.948" y="177.044"/>
      <point x="482.983" y="175.525"/>
      <point x="482" y="174" type="curve" smooth="yes"/>
      <point x="457" y="110"/>
      <point x="411" y="65"/>
    </contour>
    <contour>
      <point x="512.927" y="233.601" type="curve"/>
      <point x="490.315" y="250.096"/>
      <point x="482" y="271.627"/>
      <point x="482" y="289" type="curve" smooth="yes"/>
      <point x="482" y="306"/>
      <point x="489" y="318"/>
      <point x="500" y="318" type="curve" smooth="yes"/>
      <point x="515" y="318"/>
      <point x="524" y="305"/>
      <point x="524" y="284" type="curve" smooth="yes"/>
      <point x="524" y="270.416"/>
      <point x="520.451" y="253.284"/>
    </contour>
  </outline>
</glyph>
<glyph name="braceleft" format="1">
  <advance width="394"/>
  <unicode hex="007B"/>
  <outline>
    <contour>
      <point x="148" y="321" type="line" smooth="yes"/>
      <point x="127" y="321"/>
      <point x="109" y="308"/>
      <point x="109" y="279" type="curve" smooth="yes"/>
      <point x="109" y="257"/>
      <point x="120" y="240"/>
      <point x="139" y="238" type="curve" smooth="yes"/>
      <point x="195" y="234"/>
      <point x="203" y="220"/>
      <point x="203" y="185" type="curve" smooth="yes"/>
      <point x="203" y="129"/>
      <point x="188" y="79"/>
      <point x="188" y="27" type="curve" smooth="yes"/>
      <point x="188" y="-58"/>
      <point x="226" y="-106"/>
      <point x="330" y="-106" type="curve" smooth="yes"/>
      <point x="344" y="-106"/>
      <point x="360" y="-105"/>
      <point x="377" y="-103" type="curve" smooth="yes"/>
      <point x="391" y="-101"/>
      <point x="398" y="-86"/>
      <point x="398" y="-71" type="curve" smooth="yes"/>
      <point x="398" y="-54"/>
      <point x="389" y="-36"/>
      <point x="370" y="-36" type="curve" smooth="yes"/>
      <point x="358" y="-36"/>
      <point x="346" y="-37"/>
      <point x="337" y="-37" type="curve" smooth="yes"/>
      <point x="282" y="-37"/>
      <point x="278" y="-23"/>
      <point x="278" y="12" type="curve" smooth="yes"/>
      <point x="278" y="34" type="line" smooth="yes"/>
      <point x="278" y="83"/>
      <point x="293" y="139"/>
      <point x="293" y="193" type="curve" smooth="yes"/>
      <point x="293" y="230.933"/>
      <point x="271.61" y="256.902"/>
      <point x="242.583" y="272.872" type="curve"/>
      <point x="280.859" y="285.85"/>
      <point x="309.289" y="314.172"/>
      <point x="312" y="365" type="curve" smooth="yes"/>
      <point x="321" y="533"/>
      <point x="329" y="571"/>
      <point x="368" y="578" type="curve" smooth="yes"/>
      <point x="372" y="579"/>
      <point x="377" y="579"/>
      <point x="381" y="579" type="curve" smooth="yes"/>
      <point x="408" y="579"/>
      <point x="434" y="569"/>
      <point x="450" y="563" type="curve" smooth="yes"/>
      <point x="454" y="562"/>
      <point x="457" y="561"/>
      <point x="460" y="561" type="curve" smooth="yes"/>
      <point x="478" y="561"/>
      <point x="488" y="579"/>
      <point x="488" y="596" type="curve" smooth="yes"/>
      <point x="488" y="606"/>
      <point x="485" y="616"/>
      <point x="477" y="621" type="curve" smooth="yes"/>
      <point x="453" y="634"/>
      <point x="413" y="649"/>
      <point x="370" y="649" type="curve" smooth="yes"/>
      <point x="258" y="649"/>
      <point x="234" y="565"/>
      <point x="224" y="386" type="curve" smooth="yes"/>
      <point x="222" y="341"/>
      <point x="207" y="321"/>
      <point x="165" y="321" type="curve" smooth="yes"/>
    </contour>
  </outline>
</glyph>
<glyph name="asciitilde" format="1">
  <advance width="295"/>
  <unicode hex="007E"/>
  <outline>
    <contour>
      <point x="249" y="438" type="curve" smooth="yes"/>
      <point x="292" y="438"/>
      <point x="337" y="491"/>
      <point x="337" y="532" type="curve" smooth="yes"/>
      <point x="337" y="550"/>
      <point x="322" y="561"/>
      <point x="305" y="561" type="curve" smooth="yes"/>
      <point x="270" y="561"/>
      <point x="256" y="526"/>
      <point x="243" y="506" type="curve"/>
      <point x="211" y="539" type="line" smooth="yes"/>
      <point x="192" y="558"/>
      <point x="172" y="589"/>
      <point x="134" y="589" type="curve" smooth="yes"/>
      <point x="91" y="589"/>
      <point x="46" y="537"/>
      <point x="46" y="496" type="curve" smooth="yes"/>
      <point x="46" y="478"/>
      <point x="62" y="467"/>
      <point x="78" y="467" type="curve" smooth="yes"/>
      <point x="111" y="467"/>
      <point x="127" y="501"/>
      <point x="140" y="521" type="curve"/>
      <point x="172" y="489" type="line" smooth="yes"/>
      <point x="191" y="469"/>
      <point x="210" y="438"/>
    </contour>
  </outline>
</glyph>
<glyph name="sterling" format="1">
  <advance width="514"/>
  <unicode hex="00A3"/>
  <outline>
    <contour>
      <point x="154" y="39" type="curve" smooth="yes"/>
      <point x="154" y="5"/>
      <point x="172" y="-7"/>
      <point x="213" y="-7" type="curve" smooth="yes"/>
      <point x="444" y="-5" type="line" smooth="yes"/>
      <point x="471" y="-5"/>
      <point x="484" y="19"/>
      <point x="484" y="42" type="curve" smooth="yes"/>
      <point x="484" y="62"/>
      <point x="474" y="81"/>
      <point x="457" y="81" type="curve" smooth="yes"/>
      <point x="263" y="81" type="line"/>
      <point x="296" y="272" type="line"/>
      <point x="392" y="272" type="line" smooth="yes"/>
      <point x="414" y="272"/>
      <point x="424" y="293"/>
      <point x="424" y="313" type="curve" smooth="yes"/>
      <point x="424" y="330"/>
      <point x="417" y="345"/>
      <point x="404" y="345" type="curve" smooth="yes"/>
      <point x="305" y="345" type="line"/>
      <point x="321" y="435" type="line" smooth="yes"/>
      <point x="328" y="477"/>
      <point x="366" y="505"/>
      <point x="407" y="505" type="curve" smooth="yes"/>
      <point x="428" y="505"/>
      <point x="450" y="498"/>
      <point x="469" y="482" type="curve" smooth="yes"/>
      <point x="484" y="470"/>
      <point x="495" y="455"/>
      <point x="509" y="455" type="curve" smooth="yes"/>
      <point x="525" y="455"/>
      <point x="553" y="471"/>
      <point x="553" y="495" type="curve" smooth="yes"/>
      <point x="553" y="504"/>
      <point x="549" y="514"/>
      <point x="543" y="523" type="curve" smooth="yes"/>
      <point x="514" y="568"/>
      <point x="458" y="593"/>
      <point x="401" y="593" type="curve" smooth="yes"/>
      <point x="325" y="593"/>
      <point x="247" y="550"/>
      <point x="225" y="451" type="curve" smooth="yes"/>
      <point x="202" y="345" type="line"/>
      <point x="156" y="345" type="line" smooth="yes"/>
      <point x="135" y="345"/>
      <point x="123" y="323"/>
      <point x="123" y="304" type="curve" smooth="yes"/>
      <point x="123" y="287"/>
      <point x="131" y="272"/>
      <point x="148" y="272" type="curve" smooth="yes"/>
      <point x="193" y="272" type="line"/>
      <point x="157" y="66" type="line" smooth="yes"/>
      <point x="155" y="56"/>
      <point x="154" y="47"/>
    </contour>
  </outline>
</glyph>
<glyph name="guillemotleft" format="1">
  <advance width="566"/>
  <unicode hex="00AB"/>
  <outline>
    <contour>
      <point x="465" y="28" type="line" smooth="yes"/>
      <point x="472" y="22"/>
      <point x="481" y="19"/>
      <point x="489" y="19" type="curve" smooth="yes"/>
      <point x="513" y="19"/>
      <point x="539" y="42"/>
      <point x="539" y="65" type="curve" smooth="yes"/>
      <point x="539" y="74"/>
      <point x="535" y="84"/>
      <point x="525" y="92" type="curve" smooth="yes"/>
      <point x="420" y="185" type="line"/>
      <point x="524" y="259" type="line" smooth="yes"/>
      <point x="539" y="269"/>
      <point x="545" y="282"/>
      <point x="545" y="295" type="curve" smooth="yes"/>
      <point x="545" y="317"/>
      <point x="527" y="337"/>
      <point x="503" y="337" type="curve" smooth="yes"/>
      <point x="494" y="337"/>
      <point x="483" y="334"/>
      <point x="473" y="327" type="curve" smooth="yes"/>
      <point x="340" y="237" type="line" smooth="yes"/>
      <point x="324" y="226"/>
      <point x="317" y="204"/>
      <point x="317" y="182" type="curve" smooth="yes"/>
      <point x="317" y="159"/>
      <point x="332" y="141"/>
      <point x="348" y="127" type="curve" smooth="yes"/>
    </contour>
    <contour>
      <point x="244" y="28" type="line" smooth="yes"/>
      <point x="251" y="22"/>
      <point x="260" y="19"/>
      <point x="268" y="19" type="curve" smooth="yes"/>
      <point x="292" y="19"/>
      <point x="318" y="42"/>
      <point x="318" y="65" type="curve" smooth="yes"/>
      <point x="318" y="74"/>
      <point x="314" y="84"/>
      <point x="304" y="92" type="curve" smooth="yes"/>
      <point x="199" y="185" type="line"/>
      <point x="303" y="259" type="line" smooth="yes"/>
      <point x="318" y="269"/>
      <point x="324" y="282"/>
      <point x="324" y="295" type="curve" smooth="yes"/>
      <point x="324" y="317"/>
      <point x="306" y="337"/>
      <point x="282" y="337" type="curve" smooth="yes"/>
      <point x="273" y="337"/>
      <point x="262" y="334"/>
      <point x="252" y="327" type="curve" smooth="yes"/>
      <point x="119" y="237" type="line" smooth="yes"/>
      <point x="103" y="226"/>
      <point x="96" y="204"/>
      <point x="96" y="182" type="curve" smooth="yes"/>
      <point x="96" y="159"/>
      <point x="111" y="141"/>
      <point x="127" y="127" type="curve" smooth="yes"/>
    </contour>
  </outline>
</glyph>
<glyph name="registered" format="1">
  <advance width="636"/>
  <unicode hex="00AE"/>
  <outline>
    <contour>
      <point x="308" y="309" type="line" smooth="yes"/>
      <point x="326" y="378" type="line"/>
      <point x="341" y="378" type="line" smooth="yes"/>
      <point x="380" y="378"/>
      <point x="397" y="369"/>
      <point x="397" y="350" type="curve" smooth="yes"/>
      <point x="397" y="328"/>
      <point x="345" y="309"/>
      <point x="315" y="309" type="curve" smooth="yes"/>
    </contour>
    <contour>
      <point x="616" y="314" type="curve" smooth="yes"/>
      <point x="616" y="463"/>
      <point x="514" y="533"/>
      <point x="362" y="533" type="curve" smooth="yes"/>
      <point x="188" y="533"/>
      <point x="54" y="428"/>
      <point x="54" y="248" type="curve" smooth="yes"/>
      <point x="54" y="97"/>
      <point x="169" y="9"/>
      <point x="327" y="9" type="curve" smooth="yes"/>
      <point x="463" y="9"/>
      <point x="616" y="111"/>
    </contour>
    <contour>
      <point x="374" y="467" type="curve" smooth="yes"/>
      <point x="478" y="467"/>
      <point x="537" y="419"/>
      <point x="537" y="319" type="curve" smooth="yes"/>
      <point x="537" y="186"/>
      <point x="458" y="75"/>
      <point x="325" y="75" type="curve" smooth="yes"/>
      <point x="210" y="75"/>
      <point x="125" y="131"/>
      <point x="125" y="248" type="curve" smooth="yes"/>
      <point x="125" y="369"/>
      <point x="201" y="467"/>
    </contour>
    <contour>
      <point x="334" y="134" type="curve" smooth="yes"/>
      <point x="336" y="115"/>
      <point x="354" y="105"/>
      <point x="372" y="105" type="curve" smooth="yes"/>
      <point x="391" y="105"/>
      <point x="410" y="117"/>
      <point x="407" y="140" type="curve" smooth="yes"/>
      <point x="392.051" y="272.881" type="line"/>
      <point x="435.97" y="287.966"/>
      <point x="463" y="317.978"/>
      <point x="463" y="357" type="curve" smooth="yes"/>
      <point x="463" y="409"/>
      <point x="417" y="431"/>
      <point x="363" y="431" type="curve" smooth="yes"/>
      <point x="342" y="431"/>
      <point x="301" y="427"/>
      <point x="280" y="427" type="curve" smooth="yes"/>
      <point x="274" y="427" type="line" smooth="yes"/>
      <point x="237" y="314" type="line"/>
      <point x="229" y="314"/>
      <point x="233" y="315"/>
      <point x="224" y="315" type="curve" smooth="yes"/>
      <point x="217" y="314"/>
      <point x="213" y="305"/>
      <point x="213" y="299" type="curve" smooth="yes"/>
      <point x="213" y="289"/>
      <point x="219" y="286"/>
      <point x="227" y="279" type="curve"/>
      <point x="196" y="160" type="line" smooth="yes"/>
      <point x="195" y="157"/>
      <point x="195" y="154"/>
      <point x="195" y="151" type="curve" smooth="yes"/>
      <point x="195" y="133"/>
      <point x="212" y="119"/>
      <point x="230" y="119" type="curve" smooth="yes"/>
      <point x="244" y="119"/>
      <point x="258" y="128"/>
      <point x="264" y="149" type="curve" smooth="yes"/>
      <point x="292" y="263" type="line"/>
      <point x="282" y="264"/>
      <point x="318" y="265"/>
      <point x="318" y="265" type="curve"/>
      <point x="321" y="255"/>
      <point x="328" y="175"/>
    </contour>
  </outline>
</glyph>
<glyph name="degree" format="1">
  <advance width="251"/>
  <unicode hex="00B0"/>
  <outline>
    <contour>
      <point x="111" y="356" type="curve" smooth="yes"/>
      <point x="182" y="356"/>
      <point x="233" y="407"/>
      <point x="233" y="479" type="curve" smooth="yes"/>
      <point x="233" y="529"/>
      <point x="199" y="562"/>
      <point x="150" y="562" type="curve" smooth="yes"/>
      <point x="83" y="562"/>
      <point x="18" y="520"/>
      <point x="18" y="450" type="curve" smooth="yes"/>
      <point x="18" y="393"/>
      <point x="56" y="356"/>
    </contour>
    <contour>
      <point x="111" y="415" type="curve" smooth="yes"/>
      <point x="89" y="415"/>
      <point x="77" y="429"/>
      <point x="77" y="450" type="curve" smooth="yes"/>
      <point x="77" y="484"/>
      <point x="106" y="505"/>
      <point x="141" y="505" type="curve" smooth="yes"/>
      <point x="160" y="505"/>
      <point x="170" y="494"/>
      <point x="170" y="475" type="curve" smooth="yes"/>
      <point x="170" y="440"/>
      <point x="146" y="415"/>
    </contour>
  </outline>
</glyph>
<glyph name="paragraph" format="1">
  <advance width="447"/>
  <unicode hex="00B6"/>
  <outline>
    <contour>
      <point x="331.802" y="478" type="line"/>
      <point x="337" y="478" type="line" smooth="yes"/>
      <point x="349" y="478"/>
      <point x="373" y="480"/>
      <point x="385" y="490" type="curve"/>
      <point x="298" y="31" type="line" smooth="yes"/>
      <point x="297" y="27"/>
      <point x="297" y="23"/>
      <point x="297" y="20" type="curve" smooth="yes"/>
      <point x="297" y="-11"/>
      <point x="326" y="-26"/>
      <point x="354" y="-26" type="curve" smooth="yes"/>
      <point x="377" y="-26"/>
      <point x="398" y="-16"/>
      <point x="402" y="4" type="curve" smooth="yes"/>
      <point x="481" y="416" type="line" smooth="yes"/>
      <point x="488" y="452"/>
      <point x="499" y="486"/>
      <point x="499" y="519" type="curve" smooth="yes"/>
      <point x="499" y="603"/>
      <point x="377" y="603"/>
      <point x="294" y="603" type="curve" smooth="yes"/>
      <point x="221" y="603"/>
      <point x="45" y="547"/>
      <point x="45" y="431" type="curve" smooth="yes"/>
      <point x="45" y="342"/>
      <point x="140" y="299"/>
      <point x="192" y="299" type="curve"/>
      <point x="136" y="19" type="line" smooth="yes"/>
      <point x="136" y="16"/>
      <point x="135" y="13"/>
      <point x="135" y="11" type="curve" smooth="yes"/>
      <point x="135" y="-17"/>
      <point x="164" y="-36"/>
      <point x="191" y="-36" type="curve" smooth="yes"/>
      <point x="213" y="-36"/>
      <point x="234" y="-23"/>
      <point x="239" y="9" type="curve" smooth="yes"/>
    </contour>
  </outline>
</glyph>
<glyph name="Oslash" format="1">
  <advance width="678"/>
  <unicode hex="00D8"/>
  <outline>
    <component base="O"/>
    <contour>
      <point x="136" y="-201" type="curve" smooth="yes"/>
      <point x="711" y="702" type="line" smooth="yes"/>
      <point x="715" y="708"/>
      <point x="717" y="713"/>
      <point x="717" y="718" type="curve" smooth="yes"/>
      <point x="717" y="730"/>
      <point x="706" y="737"/>
      <point x="695" y="737" type="curve" smooth="yes"/>
      <point x="687" y="737"/>
      <point x="678" y="734"/>
      <point x="674" y="725" type="curve" smooth="yes"/>
      <point x="76" y="-158" type="line" smooth="yes"/>
      <point x="71" y="-167"/>
      <point x="69" y="-175"/>
      <point x="69" y="-182" type="curve" smooth="yes"/>
      <point x="69" y="-203"/>
      <point x="88" y="-216"/>
      <point x="107" y="-216" type="curve" smooth="yes"/>
      <point x="118" y="-216"/>
      <point x="129" y="-212"/>
    </contour>
  </outline>
</glyph>
<glyph name="Hbar" format="1">
  <advance width="768"/>
  <unicode hex="0126"/>
  <outline>
    <component base="H"/>
    <contour>
      <point x="124" y="380" type="curve" smooth="yes"/>
      <point x="647" y="381" type="line" smooth="yes"/>
      <point x="670" y="382"/>
      <point x="681" y="402"/>
      <point x="681" y="420" type="curve" smooth="yes"/>
      <point x="681" y="436"/>
      <point x="673" y="451"/>
      <point x="656" y="451" type="curve" smooth="yes"/>
      <point x="655" y="451" type="line"/>
      <point x="134" y="434" type="line" smooth="yes"/>
      <point x="108" y="433"/>
      <point x="96" y="418"/>
      <point x="96" y="404" type="curve" smooth="yes"/>
      <point x="96" y="392"/>
      <point x="105" y="380"/>
    </contour>
  </outline>
</glyph>
<glyph name="dotlessi" format="1">
  <advance width="218"/>
  <unicode hex="0131"/>
  <outline>
    <contour>
      <point x="173" y="343" type="move" name="top"/>
    </contour>
    <contour>
      <point x="34" y="101" type="curve" smooth="yes"/>
      <point x="34" y="38"/>
      <point x="74" y="-4"/>
      <point x="139" y="-4" type="curve" smooth="yes"/>
      <point x="189" y="-4"/>
      <point x="248" y="26"/>
      <point x="297" y="85" type="curve" smooth="yes"/>
      <point x="305" y="95"/>
      <point x="310" y="99"/>
      <point x="310" y="109" type="curve" smooth="yes"/>
      <point x="310" y="136"/>
      <point x="291" y="149"/>
      <point x="272" y="149" type="curve" smooth="yes"/>
      <point x="263" y="149"/>
      <point x="256" y="145"/>
      <point x="249" y="137" type="curve" smooth="yes"/>
      <point x="209" y="91"/>
      <point x="176" y="71"/>
      <point x="154" y="71" type="curve" smooth="yes"/>
      <point x="135" y="71"/>
      <point x="124" y="85"/>
      <point x="124" y="111" type="curve" smooth="yes"/>
      <point x="124" y="160"/>
      <point x="155" y="257"/>
      <point x="180" y="303" type="curve" smooth="yes"/>
      <point x="182" y="307"/>
      <point x="183" y="311"/>
      <point x="183" y="315" type="curve" smooth="yes"/>
      <point x="183" y="336"/>
      <point x="155" y="348"/>
      <point x="135" y="348" type="curve" smooth="yes"/>
      <point x="116" y="348"/>
      <point x="102" y="338"/>
      <point x="89" y="314" type="curve" smooth="yes"/>
      <point x="61" y="261"/>
      <point x="34" y="161"/>
    </contour>
  </outline>
</glyph>
<glyph name="IJ" format="1">
  <advance width="858"/>
  <unicode hex="0132"/>
  <outline>
    <contour>
      <point x="401" y="122" type="curve" smooth="yes"/>
      <point x="401" y="-46"/>
      <point x="440" y="-190"/>
      <point x="557" y="-190" type="curve" smooth="yes"/>
      <point x="708" y="-190"/>
      <point x="834" y="251"/>
      <point x="938" y="575" type="curve"/>
      <point x="955" y="574"/>
      <point x="962" y="574"/>
      <point x="958" y="576" type="curve"/>
      <point x="977" y="578"/>
      <point x="975" y="579"/>
      <point x="1028" y="582" type="curve" smooth="yes"/>
      <point x="1029" y="582" type="line" smooth="yes"/>
      <point x="1038" y="582"/>
      <point x="1060" y="613"/>
      <point x="1060" y="638" type="curve" smooth="yes"/>
      <point x="1060" y="654"/>
      <point x="1051" y="667"/>
      <point x="1023" y="667" type="curve" smooth="yes"/>
      <point x="986" y="667" type="line" smooth="yes"/>
      <point x="962" y="667" type="line"/>
      <point x="957" y="675"/>
      <point x="941" y="686"/>
      <point x="915" y="686" type="curve" smooth="yes"/>
      <point x="896" y="686"/>
      <point x="882" y="681"/>
      <point x="873" y="667" type="curve"/>
      <point x="741" y="666"/>
      <point x="576" y="664"/>
      <point x="458" y="662" type="curve"/>
      <point x="469" y="662"/>
      <point x="474" y="661"/>
      <point x="474" y="661" type="curve" smooth="yes"/>
      <point x="474" y="660"/>
      <point x="405" y="658"/>
      <point x="334" y="658" type="curve" smooth="yes"/>
      <point x="263" y="658"/>
      <point x="190" y="659"/>
      <point x="178" y="661" type="curve" smooth="yes"/>
      <point x="153" y="661"/>
      <point x="135" y="623"/>
      <point x="135" y="596" type="curve" smooth="yes"/>
      <point x="135" y="588"/>
      <point x="137" y="581"/>
      <point x="140" y="576" type="curve" smooth="yes"/>
      <point x="140" y="575"/>
      <point x="139" y="573"/>
      <point x="139" y="572" type="curve" smooth="yes"/>
      <point x="139" y="557"/>
      <point x="165" y="555"/>
      <point x="194" y="555" type="curve" smooth="yes"/>
      <point x="215" y="555"/>
      <point x="237" y="556"/>
      <point x="255" y="556" type="curve" smooth="yes"/>
      <point x="261" y="556" type="line"/>
      <point x="204" y="446"/>
      <point x="148" y="235"/>
      <point x="132" y="67" type="curve"/>
      <point x="93" y="66"/>
      <point x="4" y="53"/>
      <point x="-5" y="23" type="curve" smooth="yes"/>
      <point x="-7" y="17"/>
      <point x="-8" y="11"/>
      <point x="-8" y="6" type="curve" smooth="yes"/>
      <point x="-8" y="-13"/>
      <point x="4" y="-34"/>
      <point x="25" y="-34" type="curve" smooth="yes"/>
      <point x="58" y="-34"/>
      <point x="198" y="-8"/>
      <point x="293" y="-4" type="curve" smooth="yes"/>
      <point x="331" y="-3"/>
      <point x="346" y="25"/>
      <point x="346" y="45" type="curve" smooth="yes"/>
      <point x="346" y="54"/>
      <point x="343" y="61"/>
      <point x="338" y="65" type="curve" smooth="yes"/>
      <point x="321" y="71"/>
      <point x="296" y="73"/>
      <point x="273" y="73" type="curve" smooth="yes"/>
      <point x="250" y="73"/>
      <point x="230" y="71"/>
      <point x="220" y="69" type="curve"/>
      <point x="221" y="176"/>
      <point x="341" y="558"/>
      <point x="351" y="558" type="curve"/>
      <point x="351" y="558"/>
      <point x="352" y="558"/>
      <point x="352" y="557" type="curve"/>
      <point x="383" y="561"/>
      <point x="663" y="576"/>
      <point x="663" y="579" type="curve" smooth="yes"/>
      <point x="664" y="579" type="line" smooth="yes"/>
      <point x="682" y="579"/>
      <point x="833" y="576"/>
      <point x="845" y="575" type="curve"/>
      <point x="791" y="368"/>
      <point x="637" y="-81"/>
      <point x="545" y="-81" type="curve" smooth="yes"/>
      <point x="485" y="-81"/>
      <point x="478" y="15"/>
      <point x="472" y="130" type="curve" smooth="yes"/>
      <point x="471" y="159"/>
      <point x="453" y="175"/>
      <point x="436" y="175" type="curve" smooth="yes"/>
      <point x="418" y="175"/>
      <point x="401" y="158"/>
    </contour>
  </outline>
</glyph>
<glyph name="kgreenlandic" format="1">
  <advance width="440"/>
  <unicode hex="0138"/>
  <outline>
    <contour>
      <point x="152" y="283" type="curve"/>
      <point x="165" y="352"/>
      <point x="184" y="396"/>
      <point x="208" y="396" type="curve" smooth="yes"/>
      <point x="217" y="396"/>
      <point x="221" y="391"/>
      <point x="221" y="383" type="curve" smooth="yes"/>
      <point x="221" y="361"/>
      <point x="192" y="317"/>
    </contour>
    <contour>
      <point x="249" y="79" type="curve" smooth="yes"/>
      <point x="249" y="15"/>
      <point x="309" y="-9"/>
      <point x="340" y="-9" type="curve" smooth="yes"/>
      <point x="412" y="-9"/>
      <point x="489" y="63"/>
      <point x="503" y="88" type="curve" smooth="yes"/>
      <point x="507" y="93"/>
      <point x="508" y="99"/>
      <point x="508" y="105" type="curve" smooth="yes"/>
      <point x="508" y="125"/>
      <point x="491" y="147"/>
      <point x="475" y="147" type="curve" smooth="yes"/>
      <point x="468" y="147"/>
      <point x="460" y="143"/>
      <point x="455" y="132" type="curve" smooth="yes"/>
      <point x="402" y="59"/>
      <point x="371" y="69"/>
      <point x="370" y="61" type="curve"/>
      <point x="359" y="59"/>
      <point x="350" y="58"/>
      <point x="343" y="58" type="curve" smooth="yes"/>
      <point x="328" y="58"/>
      <point x="321" y="63"/>
      <point x="321" y="73" type="curve" smooth="yes"/>
      <point x="321" y="75"/>
      <point x="321" y="78"/>
      <point x="322" y="81" type="curve" smooth="yes"/>
      <point x="336" y="152"/>
      <point x="456" y="155"/>
      <point x="456" y="257" type="curve" smooth="yes"/>
      <point x="456" y="293"/>
      <point x="433" y="318"/>
      <point x="392" y="318" type="curve" smooth="yes"/>
      <point x="289" y="318"/>
      <point x="185" y="200"/>
      <point x="125" y="79" type="curve"/>
      <point x="125" y="86"/>
      <point x="138" y="188"/>
      <point x="143" y="206" type="curve"/>
      <point x="246" y="276"/>
      <point x="285" y="346"/>
      <point x="285" y="396" type="curve" smooth="yes"/>
      <point x="285" y="438"/>
      <point x="257" y="470"/>
      <point x="212" y="470" type="curve" smooth="yes"/>
      <point x="105" y="470"/>
      <point x="43" y="244"/>
      <point x="43" y="91" type="curve" smooth="yes"/>
      <point x="43" y="80"/>
      <point x="43" y="70"/>
      <point x="44" y="60" type="curve"/>
      <point x="44" y="60"/>
      <point x="50" y="-5"/>
      <point x="87" y="-5" type="curve" smooth="yes"/>
      <point x="196" y="-5"/>
      <point x="243" y="210"/>
      <point x="352" y="210" type="curve" smooth="yes"/>
      <point x="358" y="210"/>
      <point x="353" y="207"/>
      <point x="353" y="206" type="curve" smooth="yes"/>
      <point x="346" y="174"/>
      <point x="249" y="152"/>
    </contour>
  </outline>
</glyph>
<glyph name="firsttonechinese" format="1">
  <advance width="205"/>
  <unicode hex="02C9"/>
  <outline>
    <contour>
      <point x="220" y="605" type="curve" smooth="yes"/>
      <point x="239" y="605"/>
      <point x="248" y="615"/>
      <point x="248" y="635" type="curve" smooth="yes"/>
      <point x="248" y="655"/>
      <point x="232" y="663"/>
      <point x="218" y="669" type="curve" smooth="yes"/>
      <point x="172" y="682"/>
      <point x="108" y="687"/>
      <point x="54" y="687" type="curve" smooth="yes"/>
      <point x="27" y="687"/>
      <point x="2" y="686"/>
      <point x="-17" y="683" type="curve" smooth="yes"/>
      <point x="-58" y="677"/>
      <point x="-66" y="653"/>
      <point x="-66" y="635" type="curve" smooth="yes"/>
      <point x="-66" y="629" type="line" smooth="yes"/>
      <point x="-66" y="613"/>
      <point x="-53" y="596"/>
      <point x="-35" y="596" type="curve" smooth="yes"/>
      <point x="-32" y="596"/>
      <point x="-29" y="596"/>
      <point x="-26" y="597" type="curve" smooth="yes"/>
      <point x="18" y="607"/>
      <point x="70" y="611"/>
      <point x="118" y="611" type="curve" smooth="yes"/>
      <point x="149" y="611"/>
      <point x="179" y="609"/>
      <point x="204" y="606" type="curve" smooth="yes"/>
      <point x="210" y="605"/>
      <point x="216" y="605"/>
    </contour>
  </outline>
</glyph>
<glyph name="breve" format="1">
  <advance width="205"/>
  <unicode hex="02D8"/>
  <outline>
    <contour>
      <point x="111" y="343" type="move" name="_top"/>
    </contour>
    <contour>
      <point x="116" y="439" type="curve" smooth="yes"/>
      <point x="178" y="439"/>
      <point x="235" y="473"/>
      <point x="235" y="552" type="curve" smooth="yes"/>
      <point x="235" y="563"/>
      <point x="219" y="570"/>
      <point x="203" y="570" type="curve" smooth="yes"/>
      <point x="190" y="570"/>
      <point x="177" y="565"/>
      <point x="176" y="553" type="curve" smooth="yes"/>
      <point x="172" y="518"/>
      <point x="147" y="502"/>
      <point x="122" y="502" type="curve" smooth="yes"/>
      <point x="98" y="502"/>
      <point x="74" y="517"/>
      <point x="73" y="544" type="curve" smooth="yes"/>
      <point x="72" y="558"/>
      <point x="58" y="565"/>
      <point x="44" y="565" type="curve" smooth="yes"/>
      <point x="28" y="565"/>
      <point x="12" y="557"/>
      <point x="12" y="541" type="curve" smooth="yes"/>
      <point x="12" y="483"/>
      <point x="43" y="439"/>
    </contour>
  </outline>
</glyph>
<glyph name="uni0312" format="1">
  <advance width="205"/>
  <unicode hex="0312"/>
  <outline>
    <contour>
      <point x="86" y="343" type="move" name="_top"/>
    </contour>
    <contour>
      <point x="168" y="609" type="curve" smooth="yes"/>
      <point x="109" y="575"/>
      <point x="50" y="520"/>
      <point x="41" y="456" type="curve" smooth="yes"/>
      <point x="40" y="451"/>
      <point x="40" y="446"/>
      <point x="40" y="442" type="curve" smooth="yes"/>
      <point x="40" y="416"/>
      <point x="53" y="400"/>
      <point x="83" y="400" type="curve" smooth="yes"/>
      <point x="117" y="400"/>
      <point x="132" y="420"/>
      <point x="137" y="442" type="curve" smooth="yes"/>
      <point x="154" y="506"/>
      <point x="162" y="526"/>
      <point x="200" y="579" type="curve" smooth="yes"/>
      <point x="203" y="583"/>
      <point x="204" y="587"/>
      <point x="204" y="591" type="curve" smooth="yes"/>
      <point x="204" y="603"/>
      <point x="192" y="612"/>
      <point x="179" y="612" type="curve" smooth="yes"/>
      <point x="175" y="612"/>
      <point x="171" y="611"/>
    </contour>
  </outline>
</glyph>
<glyph name="Delta" format="1">
  <advance width="721"/>
  <unicode hex="0394"/>
  <outline>
    <contour>
      <point x="233" y="93" type="line"/>
      <point x="285" y="177"/>
      <point x="366" y="313"/>
      <point x="425" y="412" type="curve"/>
      <point x="559" y="93" type="line"/>
    </contour>
    <contour>
      <point x="151" y="1" type="curve" smooth="yes"/>
      <point x="625" y="1" type="line" smooth="yes"/>
      <point x="664" y="1"/>
      <point x="680" y="24"/>
      <point x="680" y="58" type="curve"/>
      <point x="491" y="507" type="line" smooth="yes"/>
      <point x="481" y="528"/>
      <point x="460" y="543"/>
      <point x="438" y="543" type="curve" smooth="yes"/>
      <point x="422" y="543"/>
      <point x="406" y="535"/>
      <point x="394" y="515" type="curve" smooth="yes"/>
      <point x="321" y="398"/>
      <point x="251" y="281"/>
      <point x="196" y="191" type="curve" smooth="yes"/>
      <point x="148" y="116"/>
      <point x="114" y="66"/>
      <point x="108" y="51" type="curve"/>
      <point x="106" y="23"/>
      <point x="123" y="1"/>
    </contour>
  </outline>
</glyph>
<glyph name="pi" format="1">
  <advance width="605"/>
  <unicode hex="03C0"/>
  <outline>
    <contour>
      <point x="314" y="423" type="curve" smooth="yes"/>
      <point x="207" y="423"/>
      <point x="117" y="382"/>
      <point x="117" y="265" type="curve" smooth="yes"/>
      <point x="117" y="259"/>
      <point x="118" y="254"/>
      <point x="118" y="248" type="curve" smooth="yes"/>
      <point x="118" y="226"/>
      <point x="139" y="212"/>
      <point x="158" y="212" type="curve" smooth="yes"/>
      <point x="171" y="212"/>
      <point x="184" y="219"/>
      <point x="188" y="234" type="curve" smooth="yes"/>
      <point x="199" y="310"/>
      <point x="215" y="335"/>
      <point x="266" y="340" type="curve"/>
      <point x="214" y="186"/>
      <point x="170" y="64"/>
      <point x="170" y="27" type="curve" smooth="yes"/>
      <point x="170" y="4"/>
      <point x="182" y="-22"/>
      <point x="214" y="-22" type="curve" smooth="yes"/>
      <point x="238" y="-22"/>
      <point x="275" y="38"/>
      <point x="275" y="45" type="curve" smooth="yes"/>
      <point x="275" y="46" type="line" smooth="yes"/>
      <point x="274" y="46"/>
      <point x="270" y="42"/>
      <point x="263" y="32" type="curve"/>
      <point x="279" y="113"/>
      <point x="318" y="209"/>
      <point x="345" y="338" type="curve"/>
      <point x="377" y="336"/>
      <point x="390" y="333"/>
      <point x="431" y="329" type="curve"/>
      <point x="408" y="193"/>
      <point x="399" y="107"/>
      <point x="399" y="53" type="curve" smooth="yes"/>
      <point x="399" y="-14"/>
      <point x="414" y="-30"/>
      <point x="435" y="-30" type="curve" smooth="yes"/>
      <point x="447" y="-30"/>
      <point x="461" y="-25"/>
      <point x="476" y="-20" type="curve" smooth="yes"/>
      <point x="498" y="-14"/>
      <point x="504" y="-8"/>
      <point x="504" y="11" type="curve" smooth="yes"/>
      <point x="504" y="32"/>
      <point x="496" y="69"/>
      <point x="496" y="139" type="curve" smooth="yes"/>
      <point x="496" y="185"/>
      <point x="499" y="245"/>
      <point x="510" y="324" type="curve"/>
      <point x="520" y="323"/>
      <point x="529" y="323"/>
      <point x="539" y="323" type="curve" smooth="yes"/>
      <point x="569" y="323" type="line" smooth="yes"/>
      <point x="635" y="323"/>
      <point x="653" y="373"/>
      <point x="657" y="373" type="curve" smooth="yes"/>
      <point x="657.312" y="373"/>
      <point x="657.527" y="372.708"/>
      <point x="657.674" y="372.063" type="curve"/>
      <point x="654.748" y="391.579"/>
      <point x="638.71" y="407"/>
      <point x="619" y="407" type="curve" smooth="yes"/>
      <point x="616" y="407" type="line" smooth="yes"/>
      <point x="482" y="407"/>
      <point x="419" y="423"/>
    </contour>
    <contour>
      <point x="657.674" y="372.063" type="curve"/>
      <point x="657.758" y="371.697"/>
      <point x="657.82" y="371.218"/>
      <point x="657.867" y="370.614" type="curve"/>
      <point x="657.811" y="371.1"/>
      <point x="657.746" y="371.583"/>
    </contour>
    <contour>
      <point x="657.867" y="370.614" type="curve"/>
      <point x="658" y="368.871"/>
      <point x="658" y="366.088"/>
      <point x="658" y="362" type="curve"/>
      <point x="658.244" y="364.927"/>
      <point x="658.19" y="367.809"/>
    </contour>
  </outline>
</glyph>
<glyph name="dagger" format="1">
  <advance width="394"/>
  <unicode hex="2020"/>
  <outline>
    <contour>
      <point x="331" y="521" type="curve" smooth="yes"/>
      <point x="277" y="521"/>
      <point x="271" y="481"/>
      <point x="234" y="337" type="curve"/>
      <point x="138" y="337" type="line" smooth="yes"/>
      <point x="113" y="337"/>
      <point x="95" y="324"/>
      <point x="95" y="303" type="curve" smooth="yes"/>
      <point x="95" y="282"/>
      <point x="111" y="273"/>
      <point x="135" y="273" type="curve" smooth="yes"/>
      <point x="218" y="273" type="line"/>
      <point x="146" y="-17" type="line" smooth="yes"/>
      <point x="141" y="-36"/>
      <point x="139" y="-51"/>
      <point x="139" y="-62" type="curve" smooth="yes"/>
      <point x="139" y="-90"/>
      <point x="153" y="-100"/>
      <point x="179" y="-100" type="curve" smooth="yes"/>
      <point x="214" y="-100"/>
      <point x="229" y="-66"/>
      <point x="238" y="-32" type="curve" smooth="yes"/>
      <point x="316" y="273" type="line"/>
      <point x="409" y="273" type="line" smooth="yes"/>
      <point x="434" y="273"/>
      <point x="453" y="281"/>
      <point x="453" y="306" type="curve" smooth="yes"/>
      <point x="453" y="324"/>
      <point x="437" y="337"/>
      <point x="415" y="337" type="curve" smooth="yes"/>
      <point x="328" y="337" type="line"/>
      <point x="351" y="430"/>
      <point x="360" y="456"/>
      <point x="360" y="482" type="curve" smooth="yes"/>
      <point x="360" y="488"/>
      <point x="360" y="493"/>
      <point x="359" y="500" type="curve" smooth="yes"/>
      <point x="356" y="507"/>
      <point x="350" y="521"/>
    </contour>
  </outline>
</glyph>
<glyph name="guilsinglleft" format="1">
  <advance width="432"/>
  <unicode hex="2039"/>
  <outline>
    <contour>
      <point x="346" y="12" type="curve" smooth="yes"/>
      <point x="370" y="12"/>
      <point x="392" y="34"/>
      <point x="392" y="64" type="curve" smooth="yes"/>
      <point x="392" y="88"/>
      <point x="370" y="99"/>
      <point x="334" y="118" type="curve" smooth="yes"/>
      <point x="180" y="200" type="line"/>
      <point x="377" y="262" type="line" smooth="yes"/>
      <point x="402" y="270"/>
      <point x="414" y="281"/>
      <point x="414" y="301" type="curve" smooth="yes"/>
      <point x="414" y="333"/>
      <point x="399" y="353"/>
      <point x="378" y="353" type="curve" smooth="yes"/>
      <point x="369" y="353"/>
      <point x="357" y="350"/>
      <point x="342" y="346" type="curve" smooth="yes"/>
      <point x="152" y="288" type="line" smooth="yes"/>
      <point x="115" y="277"/>
      <point x="88" y="248"/>
      <point x="88" y="193" type="curve" smooth="yes"/>
      <point x="88" y="162"/>
      <point x="101" y="137"/>
      <point x="136" y="118" type="curve" smooth="yes"/>
      <point x="310" y="23" type="line" smooth="yes"/>
      <point x="324" y="16"/>
      <point x="335" y="12"/>
    </contour>
  </outline>
</glyph>
<glyph name="radical" format="1">
  <advance width="711"/>
  <unicode hex="221A"/>
  <outline>
    <contour>
      <point x="753" y="596" type="curve" smooth="yes"/>
      <point x="753" y="611"/>
      <point x="736" y="626"/>
      <point x="715" y="626" type="curve" smooth="yes"/>
      <point x="695" y="626"/>
      <point x="684" y="605"/>
      <point x="663" y="569" type="curve" smooth="yes"/>
      <point x="383" y="100" type="line"/>
      <point x="328" y="239" type="line" smooth="yes"/>
      <point x="314" y="274"/>
      <point x="311" y="296"/>
      <point x="291" y="296" type="curve" smooth="yes"/>
      <point x="288" y="296" type="line" smooth="yes"/>
      <point x="174" y="295" type="line" smooth="yes"/>
      <point x="147" y="295"/>
      <point x="132" y="273"/>
      <point x="132" y="253" type="curve" smooth="yes"/>
      <point x="132" y="236"/>
      <point x="143" y="219"/>
      <point x="166" y="219" type="curve" smooth="yes"/>
      <point x="241" y="219" type="line"/>
      <point x="333" y="4" type="line" smooth="yes"/>
      <point x="340" y="-13"/>
      <point x="353" y="-21"/>
      <point x="367" y="-21" type="curve" smooth="yes"/>
      <point x="379" y="-21"/>
      <point x="392" y="-14"/>
      <point x="400" y="-2" type="curve" smooth="yes"/>
      <point x="729" y="539" type="line" smooth="yes"/>
      <point x="744" y="564"/>
      <point x="753" y="582"/>
    </contour>
  </outline>
</glyph>
<glyph name="fi" format="1">
  <advance width="441"/>
  <unicode hex="FB01"/>
  <outline>
    <contour>
      <point x="139" y="301" type="curve"/>
      <point x="163" y="448"/>
      <point x="204" y="551"/>
      <point x="236" y="551" type="curve" smooth="yes"/>
      <point x="246" y="551"/>
      <point x="247" y="535"/>
      <point x="247" y="520" type="curve" smooth="yes"/>
      <point x="247" y="491"/>
      <point x="170" y="380"/>
    </contour>
    <contour>
      <point x="425" y="383" type="curve" smooth="yes"/>
      <point x="469" y="383"/>
      <point x="500" y="409"/>
      <point x="500" y="456" type="curve" smooth="yes"/>
      <point x="500" y="499"/>
      <point x="471" y="514"/>
      <point x="433" y="514" type="curve" smooth="yes"/>
      <point x="390" y="514"/>
      <point x="354" y="488"/>
      <point x="354" y="446" type="curve" smooth="yes"/>
      <point x="354" y="404"/>
      <point x="383" y="383"/>
    </contour>
    <contour>
      <point x="120" y="-126" type="curve" smooth="yes"/>
      <point x="110" y="-126"/>
      <point x="101" y="-67"/>
      <point x="100" y="-15" type="curve" smooth="yes"/>
      <point x="100" y="-15"/>
      <point x="99" y="-8"/>
      <point x="99" y="5" type="curve" smooth="yes"/>
      <point x="99" y="48"/>
      <point x="102" y="143"/>
      <point x="122" y="143" type="curve" smooth="yes"/>
      <point x="123" y="146"/>
      <point x="124" y="147"/>
      <point x="125" y="147" type="curve" smooth="yes"/>
      <point x="134" y="147"/>
      <point x="150" y="64"/>
      <point x="150" y="6" type="curve" smooth="yes"/>
      <point x="150" y="-1"/>
      <point x="149" y="-7"/>
      <point x="149" y="-13" type="curve" smooth="yes"/>
      <point x="145" y="-41"/>
      <point x="151" y="-126"/>
    </contour>
    <contour>
      <point x="165" y="210" type="line"/>
      <point x="245" y="314"/>
      <point x="319" y="383"/>
      <point x="319" y="563" type="curve" smooth="yes"/>
      <point x="319" y="612"/>
      <point x="294" y="641"/>
      <point x="245" y="641" type="curve" smooth="yes"/>
      <point x="86" y="641"/>
      <point x="15" y="238"/>
      <point x="15" y="-7" type="curve" smooth="yes"/>
      <point x="15" y="-90"/>
      <point x="26" y="-208"/>
      <point x="113" y="-208" type="curve" smooth="yes"/>
      <point x="199" y="-208"/>
      <point x="230" y="-121"/>
      <point x="236" y="-21" type="curve" smooth="yes"/>
      <point x="236" y="-9" type="line" smooth="yes"/>
      <point x="236" y="41"/>
      <point x="220" y="87"/>
      <point x="201" y="126" type="curve"/>
      <point x="228" y="131"/>
      <point x="253" y="137"/>
      <point x="279" y="139" type="curve"/>
      <point x="275" y="128"/>
      <point x="273" y="117"/>
      <point x="273" y="104" type="curve" smooth="yes"/>
      <point x="273" y="50"/>
      <point x="309" y="-11"/>
      <point x="370" y="-11" type="curve" smooth="yes"/>
      <point x="437" y="-11"/>
      <point x="492" y="32"/>
      <point x="526" y="62" type="curve" smooth="yes"/>
      <point x="546" y="78"/>
      <point x="554" y="96"/>
      <point x="554" y="111" type="curve" smooth="yes"/>
      <point x="554" y="133"/>
      <point x="539" y="149"/>
      <point x="521" y="149" type="curve" smooth="yes"/>
      <point x="514" y="149"/>
      <point x="507" y="147"/>
      <point x="500" y="141" type="curve" smooth="yes"/>
      <point x="447" y="85"/>
      <point x="429" y="70"/>
      <point x="386" y="70" type="curve" smooth="yes"/>
      <point x="378" y="70"/>
      <point x="370" y="84"/>
      <point x="370" y="99" type="curve" smooth="yes"/>
      <point x="370" y="174"/>
      <point x="405" y="250"/>
      <point x="431" y="301" type="curve" smooth="yes"/>
      <point x="432" y="303"/>
      <point x="432" y="305"/>
      <point x="432" y="307" type="curve" smooth="yes"/>
      <point x="432" y="321"/>
      <point x="415" y="336"/>
      <point x="401" y="336" type="curve" smooth="yes"/>
      <point x="373" y="336"/>
      <point x="339" y="325"/>
      <point x="330" y="301" type="curve" smooth="yes"/>
      <point x="322" y="276"/>
      <point x="315" y="263"/>
      <point x="306" y="241" type="curve"/>
      <point x="278" y="223"/>
      <point x="225" y="210"/>
      <point x="179" y="210" type="curve" smooth="yes"/>
    </contour>
  </outline>
</glyph>
